<svg id="Layer_1" data-name="Layer 1" xmlns="http://www.w3.org/2000/svg" viewBox="0 0 159.94 71.12"><defs><style>.cls-1{fill:#778d87;}</style></defs><title>CLC_Logo_Small_PANTONE</title><path class="cls-1" d="M82.94,46.09a7.27,7.27,0,0,1-1.47.63,5.26,5.26,0,0,1-1.55.25,4.56,4.56,0,0,1-1.75-.32,3.91,3.91,0,0,1-1.34-.89A3.84,3.84,0,0,1,76,44.41a4.71,4.71,0,0,1-.29-1.69A4.92,4.92,0,0,1,76,41a3.92,3.92,0,0,1,.81-1.35,3.7,3.7,0,0,1,1.3-.9,4.46,4.46,0,0,1,1.74-.32,5.23,5.23,0,0,1,1.55.25,7.3,7.3,0,0,1,1.47.63l0.46-1a7.63,7.63,0,0,0-1.49-.68,5.78,5.78,0,0,0-1.9-.3,5.7,5.7,0,0,0-2.16.41A5.33,5.33,0,0,0,76,38.94a5.06,5.06,0,0,0-1.14,1.68,5.34,5.34,0,0,0-.41,2.11,5.47,5.47,0,0,0,.4,2.12A5,5,0,0,0,76,46.53a5.15,5.15,0,0,0,1.72,1.1,6.2,6.2,0,0,0,4.08.09A7.62,7.62,0,0,0,83.3,47l-0.37-1h0Zm10.39-1.67a4.18,4.18,0,0,1-.8,1.36A3.68,3.68,0,0,1,89.72,47a3.76,3.76,0,0,1-1.57-.33,3.7,3.7,0,0,1-1.24-.91,4.25,4.25,0,0,1-.8-1.36,5.14,5.14,0,0,1,0-3.39,4.25,4.25,0,0,1,.8-1.37,3.77,3.77,0,0,1,5.62,0,4.18,4.18,0,0,1,.8,1.37,5.14,5.14,0,0,1,0,3.39h0Zm1.11-3.83a5,5,0,0,0-2.71-2.77,4.89,4.89,0,0,0-2-.4,5,5,0,0,0-2,.4,5.2,5.2,0,0,0-1.64,1.1,5.3,5.3,0,0,0-1.55,3.81,5.54,5.54,0,0,0,.4,2.12,5.18,5.18,0,0,0,1.09,1.68A5,5,0,0,0,89.67,48a5.11,5.11,0,0,0,3.62-1.49,5.33,5.33,0,0,0,1.55-3.8,5.58,5.58,0,0,0-.4-2.13h0Zm8.44,7.26v-1H98V37.59H96.87V47.85h6Zm7.73,0v-1h-4.89V37.59h-1.12V47.85h6Zm7.52,0v-1h-4.89v-3.7h4.4v-1h-4.4V38.59h4.89v-1h-6V47.85h6Zm7.22-5.08v1.05h2.71v2.51a5,5,0,0,1-1.24.53,5.33,5.33,0,0,1-1.38.17,4.3,4.3,0,0,1-1.68-.33,4.11,4.11,0,0,1-1.36-.91,4.37,4.37,0,0,1-.91-1.36,4.28,4.28,0,0,1-.34-1.69,4.76,4.76,0,0,1,.28-1.63,4.14,4.14,0,0,1,.81-1.37,3.84,3.84,0,0,1,1.31-.94,4.24,4.24,0,0,1,1.76-.35,4.94,4.94,0,0,1,1.68.3,6.21,6.21,0,0,1,1.55.82l0.59-.88c-0.27-.19-0.54-0.36-0.82-0.51a5.67,5.67,0,0,0-.87-0.39,6,6,0,0,0-1-.25,6.87,6.87,0,0,0-1.16-.09,5.28,5.28,0,0,0-2,.38,5.51,5.51,0,0,0-1.71,1.07,5.41,5.41,0,0,0-1.22,1.67,5,5,0,0,0-.47,2.18,5.06,5.06,0,0,0,.46,2.18,5.21,5.21,0,0,0,1.22,1.67,5.48,5.48,0,0,0,1.76,1.07,5.74,5.74,0,0,0,2.06.38,6.41,6.41,0,0,0,2.06-.31,6,6,0,0,0,1.7-.9v-4h-3.84Zm12,5.08v-1h-4.89v-3.7h4.4v-1h-4.4V38.59h4.89v-1h-6V47.85h6Z" transform="translate(-6.7 -6.89)"/><path class="cls-1" d="M82.08,32.85v-1H77.2V22.59H76.07V32.85h6Zm7.17-3.78H85.47l1.89-4.41,1.89,4.41h0Zm2.83,3.78L87.47,22.4H87.29L82.68,32.85h1.16L85.06,30h4.59l1.22,2.84h1.2Zm8.32-3.52a3.78,3.78,0,0,1-.8,1.38,3.71,3.71,0,0,1-1.37.92,5.25,5.25,0,0,1-2,.34l-1,0a4.64,4.64,0,0,1-.75-0.09V23.58a5.87,5.87,0,0,1,.73-0.08l0.92,0a5.63,5.63,0,0,1,2,.31,4,4,0,0,1,1.42.87,3.56,3.56,0,0,1,.87,1.32,4.59,4.59,0,0,1,.29,1.66,5.29,5.29,0,0,1-.27,1.7h0Zm1.11-3.61a4.83,4.83,0,0,0-1.11-1.63,5.4,5.4,0,0,0-1.83-1.14A7,7,0,0,0,96,22.52q-0.79,0-1.44,0l-1.24.12V32.76q0.6,0.07,1.29.12c0.46,0,1,0,1.48,0a6.69,6.69,0,0,0,2.53-.44,5.25,5.25,0,0,0,1.8-1.18,4.75,4.75,0,0,0,1.08-1.69,5.66,5.66,0,0,0,.36-2,5,5,0,0,0-.38-1.91h0Zm3.81,7.13V22.59h-1.12V32.85h1.12Zm8.74,0v-1h-4.89v-3.7h4.4v-1h-4.4V23.59H114v-1h-6V32.85h6Zm7.45-3.7a2,2,0,0,0-.44-0.76,3.86,3.86,0,0,0-.85-0.68,12.32,12.32,0,0,0-1.33-.69,4.09,4.09,0,0,1-1.35-.88,1.44,1.44,0,0,1-.4-1,1.78,1.78,0,0,1,.13-0.67,1.54,1.54,0,0,1,.37-0.55,1.74,1.74,0,0,1,.61-0.37,2.39,2.39,0,0,1,.85-0.14,2.87,2.87,0,0,1,1,.17,3.35,3.35,0,0,1,.86.46l0.51-1a4.16,4.16,0,0,0-1-.5,3.91,3.91,0,0,0-1.25-.2,3.43,3.43,0,0,0-1.28.23,3.14,3.14,0,0,0-1,.62,2.73,2.73,0,0,0-.64.89,2.6,2.6,0,0,0-.22,1.06,2.55,2.55,0,0,0,.13.85,2.29,2.29,0,0,0,.42.73,3.28,3.28,0,0,0,.75.64,7.78,7.78,0,0,0,1.13.6,9.22,9.22,0,0,1,1,.52,2.6,2.6,0,0,1,.62.5,1.47,1.47,0,0,1,.3.53,2.12,2.12,0,0,1,.08.62,1.91,1.91,0,0,1-.12.67,1.63,1.63,0,0,1-.36.57,1.66,1.66,0,0,1-.6.4,2.27,2.27,0,0,1-.85.15,3.51,3.51,0,0,1-1.25-.25,5.44,5.44,0,0,1-1.23-.66l-0.54,1a6.27,6.27,0,0,0,1.38.7,4.7,4.7,0,0,0,1.59.25,3.4,3.4,0,0,0,1.25-.22,3,3,0,0,0,1-.62,2.91,2.91,0,0,0,.66-0.93,2.82,2.82,0,0,0,.24-1.16,3.12,3.12,0,0,0-.13-0.92h0Zm2.7-6.48a0.67,0.67,0,0,0-.56-0.25,0.69,0.69,0,0,0-.69.69,0.67,0.67,0,0,0,.2.48,0.81,0.81,0,0,0,.53.23,3,3,0,0,1-.29.68,2.73,2.73,0,0,1-.6.71l0.15,0.22a3.44,3.44,0,0,0,.65-0.49,2.88,2.88,0,0,0,.45-0.55,2.75,2.75,0,0,0,.27-0.57,1.72,1.72,0,0,0,.09-0.53,1,1,0,0,0-.2-0.62h0Z" transform="translate(-6.7 -6.89)"/><path class="cls-1" d="M82.94,15.59a7.28,7.28,0,0,1-1.47.63,5.26,5.26,0,0,1-1.55.25,4.55,4.55,0,0,1-1.75-.32,3.93,3.93,0,0,1-1.34-.89A3.83,3.83,0,0,1,76,13.91a4.7,4.7,0,0,1-.29-1.69A4.92,4.92,0,0,1,76,10.54a3.92,3.92,0,0,1,.81-1.35,3.7,3.7,0,0,1,1.3-.9A4.46,4.46,0,0,1,79.81,8a5.23,5.23,0,0,1,1.55.25,7.3,7.3,0,0,1,1.47.63l0.46-1a7.62,7.62,0,0,0-1.49-.68,5.78,5.78,0,0,0-1.9-.3,5.7,5.7,0,0,0-2.16.41A5.34,5.34,0,0,0,76,8.44a5.06,5.06,0,0,0-1.14,1.68,5.34,5.34,0,0,0-.41,2.11,5.48,5.48,0,0,0,.4,2.12A5,5,0,0,0,76,16a5.13,5.13,0,0,0,1.72,1.1,5.9,5.9,0,0,0,2.18.39,5.82,5.82,0,0,0,1.9-.3,7.62,7.62,0,0,0,1.49-.68l-0.37-1h0Zm9.74,1.76V7.09H91.56v4.55H86.07V7.09H85V17.35h1.12v-4.7h5.49v4.7h1.12Zm8.38,0v-1H96.18v-3.7h4.39v-1H96.18V8.09h4.88v-1h-6V17.35h6Zm8.18,0v-1h-4.88V7.09h-1.12V17.35h6Zm7.45-9.25v-1h-8v1h3.43v9.25h1.12V8.09h3.42Zm7.62,9.25v-1h-4.88v-3.7h4.39v-1h-4.39V8.09h4.88v-1h-6V17.35h6ZM134.4,17.5V7.09h-1.12v7.66L126.7,6.89l-0.22.06v10.4h1.12V9.56l6.66,8,0.14,0h0Zm10.32-.15V7.09H143.6v4.55h-5.49V7.09H137V17.35h1.12v-4.7h5.49v4.7h1.12Zm7.9-3.78h-3.78l1.89-4.41,1.89,4.41h0Zm2.83,3.78L150.83,6.9h-0.18L146,17.35h1.16l1.22-2.84H153l1.22,2.84h1.21Zm11.2,0L166.25,6.92l-0.22,0-4.34,7.73-4.45-7.73-0.21,0-0.39,10.43h1.13l0.13-7.27,3.67,6.22h0.15l3.64-6.2,0.15,7.25h1.13Z" transform="translate(-6.7 -6.89)"/><path class="cls-1" d="M9.73,12.83c1.66-.09,2.84.12,2.91,0.64a2.25,2.25,0,0,1-.21.92,8.64,8.64,0,0,0-.37,1.26,6.81,6.81,0,0,0,0,3A7,7,0,0,0,12.52,20l0.05,0.12,0,0a7.56,7.56,0,0,0,1.32,1.92L14,22.21h0a8.75,8.75,0,0,0,3.05,2,12.24,12.24,0,0,0,2.35.6c-0.33,1.47-.7,2.2-1.76,2.3a2.82,2.82,0,0,1-.41,0h0a2.5,2.5,0,0,1-.9-0.21c-0.33-.15-0.56.22-0.25,0.4a2.62,2.62,0,0,0,1.14.31,6.89,6.89,0,0,0,1,0l0.51,0a6.63,6.63,0,0,1,3.3.24,0.23,0.23,0,0,0,.25-0.39A3.74,3.74,0,0,0,20.16,27a4.23,4.23,0,0,0,.55-0.45A6.28,6.28,0,0,0,21.84,25a9.11,9.11,0,0,0,3.08-.6,6.89,6.89,0,0,0,1.58.69,6.43,6.43,0,0,0,4.59-.28h0A4.33,4.33,0,0,0,34,23.87c0.2-.21.15-0.42-0.17-0.36-1.47.32-3.2-.42-5.23-2.16a6.63,6.63,0,0,0,3.5-4.57A6.64,6.64,0,0,0,30,16.34a6.85,6.85,0,0,0,.61-2.09,8.91,8.91,0,0,0-7.9,2.25,8.39,8.39,0,0,0-3.91-1.94L18.61,14c-0.34-1.29-.66-2.5-1.73-3.2a3.6,3.6,0,0,0-3-.51,2.56,2.56,0,0,0-1.59,1.35,5.21,5.21,0,0,0-2.67.85C9.36,12.63,9.47,12.84,9.73,12.83Zm3.94,6.26a3.06,3.06,0,0,0-.18,1.79,3.39,3.39,0,0,1-.43-3.47,4.11,4.11,0,0,1,2.51-2.14,13.68,13.68,0,0,0,.5,1.8,3,3,0,0,0-.57.18A3.36,3.36,0,0,0,13.68,19.09Zm0.26,0.85a2.91,2.91,0,0,1,1.76-2.24,2.53,2.53,0,0,1,.56-0.16,9.71,9.71,0,0,0,1,1.79,3.06,3.06,0,0,0-1.19.3A2.11,2.11,0,0,0,15,22.44,2.36,2.36,0,0,1,13.94,19.93Zm3.35,3.81a8.58,8.58,0,0,1-1-.45l0,0a1.77,1.77,0,0,1,0-3.21,2.55,2.55,0,0,1,1.37-.23,7.6,7.6,0,0,0,2.41,1.8c-0.17.73-.3,1.42-0.41,2l-0.13.67A12.08,12.08,0,0,1,17.29,23.74Zm1.59,3.35c0.7-.58.94-1.42,1.3-3.36,0.11-.58.23-1.23,0.39-1.91a8.87,8.87,0,0,0,1.82.53C21.81,24.15,20.77,26.55,18.88,27.09Zm3.22-2.62a16.62,16.62,0,0,0,.71-1.86A10.45,10.45,0,0,0,24.41,24,8.79,8.79,0,0,1,22.1,24.47Zm4.55,0.12a7.86,7.86,0,0,1-3.34-2.12,9.07,9.07,0,0,0,1.06,0,11,11,0,0,0,1.21-.12,9.57,9.57,0,0,0,4.49,2.31A6.62,6.62,0,0,1,26.65,24.59ZM32.82,24c-1.64.62-4.15,0.23-6.61-1.77a9.53,9.53,0,0,0,1.93-.65A8.43,8.43,0,0,0,32.82,24Zm-9-7.87A8.66,8.66,0,0,1,30,14.64a5.64,5.64,0,0,1-.61,1.7,8.34,8.34,0,0,0-3.15.76,5.61,5.61,0,0,0-2.52,2.09,5.48,5.48,0,0,1-2-.52A7.26,7.26,0,0,1,23.83,16.15Zm5.24,0.7a5.78,5.78,0,0,1-4.71,2.35h0a5.19,5.19,0,0,1,2.14-1.65A7.86,7.86,0,0,1,29.07,16.85Zm-6.75,0a8.21,8.21,0,0,0-1.08,1.57A5.66,5.66,0,0,1,19,15.28l-0.06-.19A8,8,0,0,1,22.33,16.86Zm-8.49-4.47a0.48,0.48,0,0,0,.6-0.68,0.46,0.46,0,0,1,.52.47,0.53,0.53,0,0,1-.27.44c-0.28.18,0,.48,0.3,0.33a0.81,0.81,0,0,0,.44-0.77,1,1,0,0,0-1-.95,0.88,0.88,0,0,0-.66.22,0.66,0.66,0,0,0-.18.34,4.71,4.71,0,0,0-.77-0.14A2.11,2.11,0,0,1,14,10.76a3.1,3.1,0,0,1,2.63.45c0.91,0.6,1.19,1.67,1.52,2.92,0.11,0.43.23,0.87,0.37,1.3a5.72,5.72,0,0,0,5.86,4.26,6.22,6.22,0,0,0,5.32-2.87,6,6,0,0,1,1.85.28c-0.67,2.74-3.59,4.74-7.19,4.88a7.82,7.82,0,0,1-6.7-3A10,10,0,0,1,16,14.62a4.46,4.46,0,0,0-3.57,3.44,7.55,7.55,0,0,1,.17-2.31,8.22,8.22,0,0,1,.35-1.19,2.53,2.53,0,0,0,.23-1.15c-0.08-.68-0.83-1-2.36-1A4.83,4.83,0,0,1,13.84,12.39Z" transform="translate(-6.7 -6.89)"/><path class="cls-1" d="M38.09,12.83c1.66-.09,2.84.12,2.91,0.64a2.25,2.25,0,0,1-.21.92,8.65,8.65,0,0,0-.37,1.26,6.81,6.81,0,0,0,0,3A7,7,0,0,0,40.87,20l0.05,0.12,0,0a7.56,7.56,0,0,0,1.32,1.92l0.14,0.15h0a8.75,8.75,0,0,0,3.05,2,12.24,12.24,0,0,0,2.35.6c-0.33,1.47-.7,2.2-1.76,2.3a2.82,2.82,0,0,1-.41,0h0a2.5,2.5,0,0,1-.9-0.21c-0.33-.15-0.56.22-0.25,0.4a2.62,2.62,0,0,0,1.14.31,6.89,6.89,0,0,0,1,0l0.51,0a6.63,6.63,0,0,1,3.3.24,0.23,0.23,0,0,0,.25-0.39A3.74,3.74,0,0,0,48.52,27a4.23,4.23,0,0,0,.55-0.45A6.28,6.28,0,0,0,50.2,25a9.11,9.11,0,0,0,3.08-.6,6.9,6.9,0,0,0,1.58.69,6.43,6.43,0,0,0,4.59-.28h0a4.33,4.33,0,0,0,2.91-.91c0.2-.21.15-0.42-0.17-0.36-1.47.32-3.2-.42-5.23-2.16a6.63,6.63,0,0,0,3.5-4.57,6.64,6.64,0,0,0-2.15-.45,6.86,6.86,0,0,0,.61-2.09A8.91,8.91,0,0,0,51,16.49a8.39,8.39,0,0,0-3.91-1.94L47,14c-0.34-1.29-.66-2.5-1.73-3.2a3.6,3.6,0,0,0-3-.51,2.56,2.56,0,0,0-1.59,1.35,5.21,5.21,0,0,0-2.67.85C37.72,12.63,37.83,12.84,38.09,12.83ZM42,19.09a3.06,3.06,0,0,0-.18,1.79,3.39,3.39,0,0,1-.43-3.47,4.11,4.11,0,0,1,2.51-2.14,13.68,13.68,0,0,0,.5,1.8,3,3,0,0,0-.57.18A3.36,3.36,0,0,0,42,19.09Zm0.26,0.85a2.91,2.91,0,0,1,1.76-2.24,2.53,2.53,0,0,1,.56-0.16,9.71,9.71,0,0,0,1,1.79,3.06,3.06,0,0,0-1.19.3,2.11,2.11,0,0,0-1.11,2.83A2.36,2.36,0,0,1,42.29,19.93Zm3.35,3.81a8.59,8.59,0,0,1-1-.45l0,0a1.77,1.77,0,0,1,0-3.21A2.55,2.55,0,0,1,46,19.82a7.6,7.6,0,0,0,2.41,1.8c-0.17.73-.3,1.42-0.41,2l-0.13.67A12.08,12.08,0,0,1,45.65,23.74Zm1.59,3.35c0.7-.58.94-1.42,1.3-3.36,0.11-.58.23-1.23,0.39-1.91a8.87,8.87,0,0,0,1.82.53C50.17,24.15,49.12,26.55,47.23,27.09Zm3.22-2.62a16.62,16.62,0,0,0,.71-1.86A10.46,10.46,0,0,0,52.77,24,8.79,8.79,0,0,1,50.46,24.47ZM55,24.59a7.86,7.86,0,0,1-3.34-2.12,9.07,9.07,0,0,0,1.06,0,11,11,0,0,0,1.21-.12,9.57,9.57,0,0,0,4.49,2.31A6.62,6.62,0,0,1,55,24.59ZM61.17,24c-1.64.62-4.15,0.23-6.61-1.77a9.53,9.53,0,0,0,1.93-.65A8.43,8.43,0,0,0,61.17,24Zm-9-7.87a8.66,8.66,0,0,1,6.18-1.52,5.64,5.64,0,0,1-.61,1.7,8.34,8.34,0,0,0-3.15.76,5.61,5.61,0,0,0-2.52,2.09,5.48,5.48,0,0,1-2-.52A7.26,7.26,0,0,1,52.19,16.15Zm5.24,0.7a5.78,5.78,0,0,1-4.71,2.35h0a5.19,5.19,0,0,1,2.14-1.65A7.86,7.86,0,0,1,57.43,16.85Zm-6.75,0a8.21,8.21,0,0,0-1.08,1.57,5.66,5.66,0,0,1-2.27-3.14l-0.06-.19A8.05,8.05,0,0,1,50.68,16.86ZM42.2,12.39a0.48,0.48,0,0,0,.6-0.68,0.46,0.46,0,0,1,.52.47,0.53,0.53,0,0,1-.27.44c-0.28.18,0,.48,0.3,0.33a0.81,0.81,0,0,0,.44-0.77,1,1,0,0,0-1-.95,0.88,0.88,0,0,0-.66.22,0.66,0.66,0,0,0-.18.34,4.71,4.71,0,0,0-.77-0.14,2.11,2.11,0,0,1,1.18-.89,3.1,3.1,0,0,1,2.63.45c0.91,0.6,1.19,1.67,1.52,2.92,0.11,0.43.23,0.87,0.37,1.3a5.72,5.72,0,0,0,5.86,4.26A6.22,6.22,0,0,0,58,16.83a6,6,0,0,1,1.85.28c-0.67,2.74-3.59,4.74-7.19,4.88A7.82,7.82,0,0,1,46,19a10,10,0,0,1-1.69-4.35,4.46,4.46,0,0,0-3.57,3.44,7.55,7.55,0,0,1,.17-2.31,8.22,8.22,0,0,1,.35-1.19,2.53,2.53,0,0,0,.23-1.15c-0.08-.68-0.83-1-2.36-1A4.83,4.83,0,0,1,42.2,12.39Z" transform="translate(-6.7 -6.89)"/><path class="cls-1" d="M6.7,7.09V35.77c0,16.77,10.43,32.13,28.63,42.16L35.47,78l0.14-.08c18.19-10,28.62-25.39,28.62-42.16V7.09H6.7ZM57,57.86L35.65,42.31a0.3,0.3,0,0,0-.35,0L13.92,57.87A42.52,42.52,0,0,1,8.55,45.62L35.5,26,62.4,45.57A42.53,42.53,0,0,1,57,57.86ZM35.47,77.33c-9.22-5.11-16.41-11.6-21.22-19L35.47,42.93,56.7,58.37C51.89,65.72,44.7,72.22,35.47,77.33ZM63.64,35.77a39.46,39.46,0,0,1-1.08,9.17L35.67,25.39a0.3,0.3,0,0,0-.35,0L8.39,45A39.48,39.48,0,0,1,7.3,35.77V7.69H63.64V35.77Z" transform="translate(-6.7 -6.89)"/><path class="cls-1" d="M46.94,60.5a0.25,0.25,0,0,0-.23-0.18,0.26,0.26,0,0,0-.24.15c-0.81,1.92-2.25,2.83-5.72,4.9-1.78,1.06-3.67,2.23-4.41,4.2-0.07-1-.16-2.27-0.22-2.9-0.08-.89-0.18-1.91-0.26-3a1.64,1.64,0,0,0,1.24.61A1.79,1.79,0,0,0,38,63,2.25,2.25,0,0,0,38,62.3a2.25,2.25,0,0,0,.45.49,1.79,1.79,0,0,0,1.63.19,1.79,1.79,0,0,0,.33-1.61,2.2,2.2,0,0,0-.33-0.58,2.23,2.23,0,0,0,.61.27,1.8,1.8,0,0,0,1.56-.49,1.79,1.79,0,0,0-.35-1.6,2.22,2.22,0,0,0-.54-0.39,2.19,2.19,0,0,0,.67,0,1.8,1.8,0,0,0,1.23-1.09,1.79,1.79,0,0,0-1-1.32A2.28,2.28,0,0,0,41.61,56a2.18,2.18,0,0,0,.61-0.27,1.79,1.79,0,0,0,.68-1.49,1.79,1.79,0,0,0-1.43-.81,2.2,2.2,0,0,0-.65.13,2.26,2.26,0,0,0,.44-0.5,1.8,1.8,0,0,0,0-1.64,1.79,1.79,0,0,0-1.63-.16,2.23,2.23,0,0,0-.54.39A2.23,2.23,0,0,0,39.3,51a1.8,1.8,0,0,0-.65-1.5,1.79,1.79,0,0,0-1.56.52,2.23,2.23,0,0,0-.33.57A2.22,2.22,0,0,0,36.68,50a1.78,1.78,0,0,0-1.21-1.11A1.78,1.78,0,0,0,34.26,50a2.24,2.24,0,0,0-.07.66,2.27,2.27,0,0,0-.33-0.57,1.79,1.79,0,0,0-1.56-.52,1.79,1.79,0,0,0-.66,1.5,2.22,2.22,0,0,0,.2.63,2.21,2.21,0,0,0-.54-0.39,1.79,1.79,0,0,0-1.63.16,1.79,1.79,0,0,0,0,1.64,2.26,2.26,0,0,0,.44.5,2.26,2.26,0,0,0-.65-0.13,1.79,1.79,0,0,0-1.43.81,1.79,1.79,0,0,0,.68,1.49,2.18,2.18,0,0,0,.61.27,2.28,2.28,0,0,0-.65.14,1.79,1.79,0,0,0-1,1.32,1.79,1.79,0,0,0,1.23,1.09,2.26,2.26,0,0,0,.67,0,2.27,2.27,0,0,0-.54.39,1.8,1.8,0,0,0-.35,1.6,1.79,1.79,0,0,0,1.56.49,2.23,2.23,0,0,0,.61-0.27,2.23,2.23,0,0,0-.33.58A1.8,1.8,0,0,0,30.89,63a1.79,1.79,0,0,0,1.63-.18A2.24,2.24,0,0,0,33,62.3a2.26,2.26,0,0,0-.07.66,1.8,1.8,0,0,0,1,1.33,1.64,1.64,0,0,0,1.23-.6c-0.08,1-.18,2.05-0.25,2.95-0.05.64-.15,1.87-0.22,2.92-0.72-1.95-2.64-3.14-4.42-4.2-3.47-2.07-4.92-3-5.72-4.9a0.26,0.26,0,0,0-.24-0.15,0.25,0.25,0,0,0-.23.18c-0.95,3.15.59,5.81,4.7,8.15l1.06,0.58a23.34,23.34,0,0,1,3.15,1.93,7.39,7.39,0,0,1,2.34,3.52,0.23,0.23,0,0,0,.21.15h0a0.23,0.23,0,0,0,.21-0.16A8,8,0,0,1,38,71.15a18.51,18.51,0,0,1,3.05-1.88l1.15-.62C46.35,66.31,47.89,63.64,46.94,60.5ZM37,63.81a1.44,1.44,0,0,1-.88-0.59,12.49,12.49,0,0,1-.44-4.09A2.44,2.44,0,0,0,36.29,59a12.39,12.39,0,0,1,1.26,3.92A1.43,1.43,0,0,1,37,63.81Zm-1.52-5.16a2,2,0,1,1,2-2A2,2,0,0,1,35.47,58.65Zm4.29,3.93a1.43,1.43,0,0,1-1-.18,12.53,12.53,0,0,1-2.07-3.56,2.39,2.39,0,0,0,.52-0.37,12.38,12.38,0,0,1,2.74,3.06A1.43,1.43,0,0,1,39.76,62.57ZM41.5,59.3a1.43,1.43,0,0,1,.29,1,1.43,1.43,0,0,1-1,.26,12.52,12.52,0,0,1-3.34-2.41,2.44,2.44,0,0,0,.33-0.54A12.36,12.36,0,0,1,41.5,59.3Zm0.55-2.68a1.43,1.43,0,0,1,.68.81,1.43,1.43,0,0,1-.83.65,12.47,12.47,0,0,1-4-.84,2.46,2.46,0,0,0,.07-0.57s0,0,0-.06A12.41,12.41,0,0,1,42.05,56.62Zm-0.59-2.67a1.43,1.43,0,0,1,1,.46,1.42,1.42,0,0,1-.49.93,12.5,12.5,0,0,1-4,.87,2.44,2.44,0,0,0-.2-0.61A12.37,12.37,0,0,1,41.47,53.95Zm-1.62-2.2a1.43,1.43,0,0,1,1.06,0,1.42,1.42,0,0,1-.07,1.05,12.07,12.07,0,0,1-3.2,2.36l-0.11.07a2.49,2.49,0,0,0-.43-0.47A12.39,12.39,0,0,1,39.84,51.75Zm-2.38-1.35a1.43,1.43,0,0,1,1-.4,1.42,1.42,0,0,1,.37,1,12,12,0,0,1-2,3.45l-0.09.13a2.39,2.39,0,0,0-.58-0.26A12.4,12.4,0,0,1,37.46,50.39Zm-2.72-.27a1.45,1.45,0,0,1,.73-0.76,1.45,1.45,0,0,1,.73.76,12.39,12.39,0,0,1-.42,4.09,1.62,1.62,0,0,0-.63,0A12.38,12.38,0,0,1,34.74,50.13ZM32.5,50a1.45,1.45,0,0,1,1,.4,12.39,12.39,0,0,1,1.28,3.91,2.44,2.44,0,0,0-.58.25,12.34,12.34,0,0,1-2-3.57A1.44,1.44,0,0,1,32.5,50Zm-2.38,2.84A1.44,1.44,0,0,1,30,51.78a1.45,1.45,0,0,1,1.06,0,12.48,12.48,0,0,1,2.76,3,2.55,2.55,0,0,0-.43.47A12.38,12.38,0,0,1,30.12,52.84ZM29,55.34a1.44,1.44,0,0,1-.5-0.93,1.45,1.45,0,0,1,1-.46,12.37,12.37,0,0,1,3.76,1.66,2.43,2.43,0,0,0-.2.61A12.32,12.32,0,0,1,29,55.34Zm0,2.74a1.44,1.44,0,0,1-.83-0.65,1.45,1.45,0,0,1,.68-0.81,12.42,12.42,0,0,1,4.11,0s0,0,0,.06a2.47,2.47,0,0,0,.07.57A12.33,12.33,0,0,1,29,58.08Zm1.13,2.49a1.45,1.45,0,0,1-1-.26,1.44,1.44,0,0,1,.29-1,12.43,12.43,0,0,1,3.75-1.68,2.45,2.45,0,0,0,.33.55A12.42,12.42,0,0,1,30.18,60.57Zm2,1.82a1.44,1.44,0,0,1-1,.18,1.44,1.44,0,0,1-.15-1,12.47,12.47,0,0,1,2.74-3.06,2.42,2.42,0,0,0,.52.37A12.41,12.41,0,0,1,32.22,62.39Zm2.61,0.83a1.43,1.43,0,0,1-.88.59,1.44,1.44,0,0,1-.56-0.9A12.47,12.47,0,0,1,34.65,59a2.51,2.51,0,0,0,.62.13A12.36,12.36,0,0,1,34.83,63.22Zm7.16,5-1.14.62a19,19,0,0,0-3.14,1.94,7.85,7.85,0,0,0-2.25,3.09,7.26,7.26,0,0,0-2.25-3.1,24,24,0,0,0-3.22-2l-1.05-.58c-3.58-2-5.1-4.3-4.63-6.91,1,1.74,2.71,2.77,5.61,4.5a13.75,13.75,0,0,1,2.86,2.1,6.33,6.33,0,0,1,1.8,3,0.22,0.22,0,0,0,.24.17,0.23,0.23,0,0,0,.2-0.22c0-1,.35-6.11.43-7.15h0c0.08,1,.4,6.12.43,7.16a0.23,0.23,0,0,0,.2.22,0.22,0.22,0,0,0,.24-0.17,6.34,6.34,0,0,1,1.77-3A13.55,13.55,0,0,1,41,65.8c2.9-1.73,4.64-2.76,5.62-4.5C47.09,63.91,45.57,66.18,42,68.21Z" transform="translate(-6.7 -6.89)"/><path class="cls-1" d="M32.4,39.9a0.24,0.24,0,0,1-.15,0,0.25,0.25,0,0,1-.09-0.28l1.13-3.48-3-2.15a0.25,0.25,0,0,1,.15-0.45h3.66L35.27,30a0.25,0.25,0,0,1,.24-0.17h0a0.25,0.25,0,0,1,.24.17l1.13,3.48h3.66a0.25,0.25,0,0,1,.15.45l-3,2.15,1.13,3.48a0.25,0.25,0,0,1-.39.28l-3-2.15-3,2.15A0.24,0.24,0,0,1,32.4,39.9ZM31.24,34l2.48,1.81a0.25,0.25,0,0,1,.09.28L32.87,39l2.49-1.81a0.25,0.25,0,0,1,.29,0L38.13,39l-0.95-2.92a0.25,0.25,0,0,1,.09-0.28L39.76,34H36.69a0.25,0.25,0,0,1-.24-0.17L35.51,30.9l-1,2.92a0.25,0.25,0,0,1-.24.17H31.24Z" transform="translate(-6.7 -6.89)"/><path class="cls-1" d="M24.07,49a0.25,0.25,0,0,1-.15,0l-3-2.15L18,49a0.25,0.25,0,0,1-.39-0.28l1.13-3.49-3-2.15a0.25,0.25,0,0,1,.15-0.45h3.66l1.13-3.49a0.26,0.26,0,0,1,.48,0l1.13,3.49H26a0.25,0.25,0,0,1,.15.45l-3,2.15,1.13,3.49A0.25,0.25,0,0,1,24.07,49Zm-7.36-5.91,2.48,1.8a0.25,0.25,0,0,1,.09.28l-0.95,2.93,2.49-1.81a0.25,0.25,0,0,1,.29,0l2.48,1.81-0.95-2.93a0.25,0.25,0,0,1,.09-0.28l2.48-1.8H22.15A0.25,0.25,0,0,1,21.91,43L21,40,20,43a0.25,0.25,0,0,1-.24.17H16.71Z" transform="translate(-6.7 -6.89)"/><path class="cls-1" d="M46.94,49a0.25,0.25,0,0,1-.24-0.33l1.13-3.49-3-2.15A0.25,0.25,0,0,1,45,42.63h3.66l1.13-3.49A0.25,0.25,0,0,1,50,39h0a0.25,0.25,0,0,1,.24.17l1.13,3.49h3.66a0.25,0.25,0,0,1,.15.45l-3,2.15,1.13,3.49a0.25,0.25,0,0,1-.09.28A0.25,0.25,0,0,1,53,49l-3-2.15-3,2.15A0.25,0.25,0,0,1,46.94,49ZM50,46.28a0.24,0.24,0,0,1,.15,0l2.48,1.81-0.95-2.93a0.25,0.25,0,0,1,.09-0.28l2.48-1.8H51.23A0.25,0.25,0,0,1,51,43L50,40l-1,2.92a0.25,0.25,0,0,1-.24.17H45.79l2.48,1.8a0.25,0.25,0,0,1,.09.28l-0.95,2.93,2.49-1.81A0.24,0.24,0,0,1,50,46.28Z" transform="translate(-6.7 -6.89)"/></svg>