<?xml version="1.0" encoding="utf-8"?>
<!-- Generator: Adobe Illustrator 19.1.0, SVG Export Plug-In . SVG Version: 6.00 Build 0)  -->
<svg version="1.1" id="Layer_1" xmlns="http://www.w3.org/2000/svg" xmlns:xlink="http://www.w3.org/1999/xlink" x="0px" y="0px"
	 viewBox="-471 273 16 16" style="enable-background:new -471 273 16 16;" xml:space="preserve">
<g>
	<path d="M-456.3,280.9c0-0.1-0.1-0.1-0.1-0.1s-0.1,0.1-0.1,0.1c-0.5,1.1-1.3,1.6-3.3,2.8c-1,0.6-2.1,1.3-2.5,2.4
		c-0.1-0.6-0.1-1.3-0.1-1.7c-0.1-0.5-0.1-1.1-0.2-1.7c0.2,0.2,0.5,0.4,0.7,0.3c0.3-0.1,0.5-0.5,0.6-0.7c0-0.1,0-0.2-0.1-0.4
		c0.1,0.1,0.2,0.2,0.2,0.3c0.2,0.1,0.7,0.3,0.9,0.1c0.2-0.2,0.3-0.7,0.2-0.9c-0.1-0.1-0.1-0.2-0.2-0.3c0.1,0.1,0.2,0.1,0.3,0.2
		c0.2,0.1,0.7-0.1,0.9-0.3c0.1-0.2-0.1-0.7-0.2-0.9c-0.1-0.1-0.2-0.2-0.3-0.2c0.2,0,0.3,0,0.4,0c0.2-0.1,0.7-0.3,0.7-0.6
		c0.1-0.3-0.3-0.7-0.6-0.7c-0.1-0.1-0.2-0.1-0.4-0.1c0.2-0.1,0.3-0.1,0.3-0.2c0.2-0.1,0.5-0.6,0.4-0.9c-0.1-0.3-0.6-0.5-0.8-0.5
		c-0.1,0-0.2,0.1-0.4,0.1c0.1-0.1,0.2-0.2,0.2-0.3c0.1-0.2,0.2-0.7,0-0.9c-0.2-0.2-0.7-0.2-0.9-0.1c-0.1,0.1-0.2,0.1-0.3,0.2
		c0.1-0.1,0.1-0.3,0.1-0.3c0-0.2-0.1-0.7-0.4-0.9c-0.3-0.1-0.7,0.1-0.9,0.3c-0.1,0.1-0.1,0.2-0.2,0.3c0-0.2,0-0.3-0.1-0.4
		c-0.1-0.2-0.4-0.6-0.7-0.6c-0.3,0-0.6,0.4-0.7,0.6c-0.1,0.1-0.1,0.2-0.1,0.4c-0.1-0.1-0.1-0.2-0.2-0.3c-0.2-0.2-0.6-0.4-0.9-0.3
		c-0.3,0.1-0.4,0.6-0.4,0.9c0,0.1,0.1,0.2,0.1,0.3c-0.1-0.1-0.2-0.2-0.3-0.2c-0.2-0.1-0.7-0.1-0.9,0.1c-0.2,0.2-0.1,0.7,0,0.9
		c0.1,0.1,0.1,0.2,0.2,0.3c-0.2-0.1-0.3-0.1-0.4-0.1c-0.2,0-0.7,0.2-0.8,0.5c-0.1,0.3,0.2,0.7,0.4,0.9c0.1,0.1,0.2,0.1,0.3,0.2
		c-0.2,0-0.3,0.1-0.4,0.1c-0.2,0.1-0.6,0.5-0.6,0.7c0.1,0.3,0.5,0.6,0.7,0.6c0.1,0,0.2,0,0.4,0c-0.1,0.1-0.2,0.2-0.3,0.2
		c-0.2,0.2-0.3,0.7-0.2,0.9c0.1,0.2,0.7,0.3,0.9,0.3c0.1,0,0.2-0.1,0.3-0.2c-0.1,0.1-0.2,0.2-0.2,0.3c-0.1,0.2-0.1,0.7,0.2,0.9
		c0.2,0.2,0.7,0,0.9-0.1c0.1-0.1,0.2-0.2,0.2-0.3c-0.1,0.2-0.1,0.3-0.1,0.4c0,0.2,0.3,0.7,0.6,0.7c0.2,0.1,0.5-0.2,0.7-0.3
		c-0.1,0.6-0.1,1.2-0.2,1.7c-0.1,0.3-0.1,1.1-0.1,1.7c-0.4-1.1-1.5-1.8-2.5-2.4c-2-1.2-2.8-1.7-3.3-2.8c0-0.1-0.1-0.1-0.1-0.1
		c-0.1,0-0.1,0.1-0.1,0.1c-0.5,1.8,0.3,3.3,2.7,4.6c0.2,0.1,0.4,0.2,0.6,0.3c0.6,0.3,1.3,0.7,1.8,1.1c0.8,0.6,1.2,1.5,1.3,2
		c0,0.1,0.1,0.1,0.1,0.1l0,0c0.1,0,0.1-0.1,0.1-0.1c0.2-0.7,0.7-1.5,1.4-2c0.5-0.4,1.1-0.7,1.8-1.1c0.2-0.1,0.5-0.2,0.6-0.3
		C-456.6,284.2-455.7,282.7-456.3,280.9z M-461.9,282.8c-0.1,0-0.4-0.2-0.5-0.3c-0.2-0.3-0.2-1.1-0.2-2.3c0.1,0,0.2-0.1,0.3-0.1
		c0.5,1.1,0.7,1.9,0.7,2.2C-461.7,282.4-461.8,282.8-461.9,282.8z M-462.8,279.9c-0.6,0-1.1-0.5-1.1-1.1c0-0.6,0.5-1.1,1.1-1.1
		s1.1,0.5,1.1,1.1C-461.7,279.4-462.2,279.9-462.8,279.9z M-460.3,282.1c-0.1,0.1-0.5,0-0.6-0.1c-0.2-0.2-0.7-0.9-1.2-2.1
		c0.1-0.1,0.2-0.1,0.3-0.2c0.9,0.8,1.5,1.4,1.5,1.8C-460.2,281.6-460.3,282-460.3,282.1z M-459.4,280.2c0.1,0.1,0.2,0.5,0.2,0.6
		c-0.1,0.1-0.4,0.2-0.6,0.2c-0.3-0.1-1-0.6-1.9-1.4c0.1-0.1,0.1-0.2,0.2-0.3C-460.3,279.6-459.6,280-459.4,280.2z M-459,278.7
		c0.2,0.1,0.4,0.3,0.4,0.5s-0.3,0.3-0.5,0.4c-0.3,0.1-1.1-0.1-2.3-0.5c0-0.1,0.1-0.2,0.1-0.3c0,0,0,0,0-0.1
		C-460.2,278.6-459.3,278.6-459,278.7z M-459.4,277.2c0.2,0,0.5,0.2,0.6,0.3c0.1,0.1-0.1,0.5-0.3,0.5c-0.2,0.2-1.1,0.3-2.3,0.5
		c0-0.1-0.1-0.2-0.1-0.3C-460.5,277.5-459.7,277.2-459.4,277.2z M-460.3,275.9c0.2-0.1,0.5-0.1,0.6,0c0.1,0.1,0.1,0.5-0.1,0.6
		c-0.2,0.3-0.8,0.7-1.8,1.4c0,0-0.1,0-0.1,0.1c-0.1-0.1-0.2-0.2-0.2-0.3C-461.1,276.7-460.6,276.1-460.3,275.9z M-461.7,275.1
		c0.1-0.1,0.5-0.3,0.6-0.2c0.1,0.1,0.2,0.4,0.2,0.6c-0.1,0.3-0.5,1-1.1,1.9l-0.1,0.1c-0.1-0.1-0.2-0.1-0.3-0.2
		C-462.1,276.2-461.9,275.4-461.7,275.1z M-463.3,275c0.1-0.2,0.3-0.5,0.4-0.5s0.3,0.3,0.4,0.5c0.1,0.3,0,1.1-0.2,2.3
		c-0.1,0-0.1,0-0.2,0c-0.1,0-0.1,0-0.2,0C-463.3,276.1-463.3,275.3-463.3,275z M-464.5,274.9c0.1-0.1,0.5,0.1,0.6,0.2
		c0.2,0.2,0.5,1,0.7,2.2c-0.1,0.1-0.2,0.1-0.3,0.2c-0.7-1-1.1-1.7-1.1-2.1C-464.7,275.3-464.6,275-464.5,274.9z M-465.9,276.5
		c-0.1-0.2-0.1-0.5-0.1-0.6c0.1-0.1,0.5-0.1,0.6,0c0.3,0.1,0.9,0.7,1.6,1.7c-0.1,0.1-0.2,0.2-0.2,0.3
		C-465,277.3-465.7,276.8-465.9,276.5z M-466.5,278c-0.1-0.1-0.3-0.5-0.3-0.5c0.1-0.1,0.4-0.3,0.6-0.3c0.3,0,1.1,0.3,2.2,1
		c-0.1,0.1-0.1,0.2-0.1,0.3C-465.4,278.3-466.2,278.2-466.5,278z M-466.5,279.5c-0.2-0.1-0.5-0.3-0.5-0.4c0-0.1,0.2-0.4,0.4-0.5
		c0.3-0.1,1.1-0.1,2.3,0c0,0,0,0,0,0.1c0,0.1,0,0.2,0.1,0.3C-465.4,279.4-466.2,279.6-466.5,279.5z M-465.8,281
		c-0.2,0.1-0.5-0.1-0.6-0.2c-0.1-0.1,0.1-0.5,0.2-0.6c0.2-0.2,1-0.6,2.1-1c0.1,0.1,0.1,0.2,0.2,0.3
		C-464.8,280.4-465.5,280.9-465.8,281z M-464.7,282c-0.1,0.1-0.5,0.2-0.6,0.1s-0.1-0.5-0.1-0.6c0.1-0.3,0.7-0.9,1.5-1.8
		c0.1,0.1,0.2,0.2,0.3,0.2C-464,281.1-464.4,281.8-464.7,282z M-463.2,282.4c-0.1,0.2-0.4,0.3-0.5,0.3s-0.3-0.3-0.3-0.5
		c-0.1-0.3,0.2-1.1,0.7-2.2c0.1,0.1,0.2,0.1,0.3,0.1C-463,281.4-463,282.2-463.2,282.4z M-459.1,285.3c-0.2,0.1-0.4,0.2-0.6,0.3
		c-0.6,0.3-1.4,0.7-1.8,1.1c-0.6,0.5-1.1,1.3-1.4,1.9c-0.3-0.7-0.7-1.4-1.2-1.9c-0.5-0.4-1.1-0.8-1.7-1.1c-0.2-0.1-0.5-0.2-0.7-0.3
		c-2.1-1.1-3.1-2.8-2.9-4.3c0.6,1,1.8,1.9,3.5,2.9c0.6,0.3,1.1,0.7,1.5,1.2s0.6,0.9,0.7,1.7c0,0.1,0.1,0.1,0.1,0.1
		c0.1,0,0.1-0.1,0.1-0.1c0-0.6,0.3-3.5,0.4-4.1h0.1c0.1,0.6,0.3,3.5,0.3,4.1c0,0.1,0.1,0.1,0.1,0.1s0.1-0.1,0.1-0.1
		c0.2-0.7,0.6-1.2,1-1.7c0.5-0.5,1-0.9,1.7-1.2c1.7-1,2.6-1.6,3.2-2.6C-456.2,282.8-457,284.2-459.1,285.3z"/>
</g>
</svg>
