<svg id="Layer_1" data-name="Layer 1" xmlns="http://www.w3.org/2000/svg" viewBox="0 0 255 255"><defs><style>.cls-1{fill:#5a7f72;}</style></defs><title>ICONS-settings</title><g id="layer1"><path id="path3032" class="cls-1" d="M134.5,18A127.5,127.5,0,1,0,262,145.5,127.5,127.5,0,0,0,134.5,18ZM122.36,67.8h24.28L149,91.24a55.81,55.81,0,0,1,13.63,5.63L180.87,82,198,99.13l-14.91,18.24A55.81,55.81,0,0,1,188.76,131l23.44,2.35v24.28L188.76,160a55.79,55.79,0,0,1-5.63,13.62L198,191.87,180.87,209l-18.26-14.91A55.76,55.76,0,0,1,149,199.76l-2.35,23.44H122.36L120,199.76a55.74,55.74,0,0,1-13.6-5.63L88.13,209,71,191.87l14.91-18.26A55.74,55.74,0,0,1,80.24,160L56.8,157.64V133.36L80.24,131a55.76,55.76,0,0,1,5.63-13.62L71,99.13,88.13,82l18.24,14.91A55.79,55.79,0,0,1,120,91.24ZM134.5,123A22.46,22.46,0,1,0,157,145.5,22.46,22.46,0,0,0,134.5,123Z" transform="translate(-7 -18)"/></g></svg>