<?xml version="1.0" encoding="utf-8"?>
<!-- Generator: Adobe Illustrator 19.1.0, SVG Export Plug-In . SVG Version: 6.00 Build 0)  -->
<svg version="1.1" id="Layer_1" xmlns="http://www.w3.org/2000/svg" xmlns:xlink="http://www.w3.org/1999/xlink" x="0px" y="0px"
	 viewBox="0 0 377.9 351.3" style="enable-background:new 0 0 377.9 351.3;" xml:space="preserve">
<style type="text/css">
	.st0{fill:none;stroke:#706F6E;stroke-width:20;stroke-miterlimit:10;}
	.st1{fill:none;stroke:#706F6F;stroke-width:8;stroke-miterlimit:10;}
	.st2{display:none;}
	.st3{display:inline;fill:none;stroke:#5B7F72;stroke-width:20;stroke-miterlimit:10;}
	.st4{display:inline;fill:#FFFFFF;stroke:#5B7F72;stroke-width:20;stroke-miterlimit:10;}
	.st5{display:inline;fill:#FFFFFF;stroke:#5B7F72;stroke-width:40;stroke-miterlimit:10;}
	.st6{fill:#5B7F72;}
</style>
<ellipse class="st0" cx="189.5" cy="175.9" rx="176.2" ry="163.2"/>
<g>
	<line class="st1" x1="72.1" y1="99.5" x2="299.6" y2="99.5"/>
	<line class="st1" x1="72.1" y1="139.2" x2="299.6" y2="139.2"/>
	<line class="st1" x1="72.1" y1="178.8" x2="299.6" y2="178.8"/>
	<line class="st1" x1="72.1" y1="218.5" x2="299.6" y2="218.5"/>
	<line class="st1" x1="72.1" y1="259.4" x2="299.6" y2="258.1"/>
</g>
<g class="st2">
	<circle class="st3" cx="213.6" cy="185.8" r="82.2"/>
	<line class="st4" x1="271.8" y1="243.9" x2="290.9" y2="263.9"/>
	<line class="st5" x1="282.9" y1="254.8" x2="367.9" y2="345.7"/>
</g>
<g id="Layer_2">
</g>
<g>
	<path class="st6" d="M187.9,224.3c0.1,0.2,0.1,0.3,0.2,0.5c-1,1.2-2,2.4-3,3.6v-12.1c0.2,0.9,0.4,1.8,0.8,2.8
		C186.4,220.7,187.2,222.5,187.9,224.3z"/>
	<g>
		<path class="st6" d="M165.6,231.2l10.5,12c-3.3,7.3-5.5,15-6.4,23l-21.9-25l-9.5-30.2c-1.7-5.3,1.3-10.9,6.5-12.5
			c5.3-1.7,10.9,1.3,12.5,6.5L165.6,231.2z"/>
		<path class="st6" d="M205.1,118v79.7c-6,1.4-11.9,3.9-16.8,8.2c-1.7,1.5-2.7,3.2-3.2,5.2V118c0-5.5,4.5-10,10-10
			C200.6,108,205.1,112.4,205.1,118z"/>
		<path class="st6" d="M318.9,130.6v79.3c-1-1.3-2-2.5-3.2-3.7c-4.9-4.8-10.9-7.5-16.8-9v-66.6c0-5.5,4.5-10,10-10
			C314.4,120.6,318.9,125.1,318.9,130.6z"/>
		<path class="st6" d="M243.9,96v100.8c-2-0.1-4-0.2-6.1-0.3c-4.6-0.2-9.2-0.5-13.9-0.5V96c0-5.5,4.5-10,10-10
			C239.4,86,243.9,90.4,243.9,96z"/>
		<path class="st6" d="M282.6,102v93.4h-0.9c-5.6,0-11.3,0.4-16.8,0.8c-0.8,0.1-1.6,0.1-2.3,0.2V102c0-5.5,4.5-10,10-10
			C278.2,92,282.6,96.4,282.6,102z"/>
		<path class="st6" d="M331.6,274.6c0,20.4-8.2,39.7-23.1,54.4c-13.7,13.4-27.9,14.5-45,14.5c-1.3,0-2.6,0-3.9,0c-1.4,0-2.8,0-4.2,0
			c-2.5,0-5.1,0-7.7,0.1c-2.8,0.1-5.6,0.1-8.4,0.1c-15.9,0-32.2-1.4-43.9-11.6c-1-0.8-1.7-1.6-2.3-2.3c-0.2-0.3-0.5-0.5-0.8-0.8
			c-14.9-14.6-23.1-33.9-23.1-54.4c0-2.8,0.2-5.6,0.5-8.4c0.9-8,3.1-15.8,6.4-23l9,10.3v-25c1-1.2,2-2.5,3-3.6
			c-0.1-0.2-0.2-0.4-0.2-0.5c-0.7-1.8-1.5-3.6-2-5.1c-0.3-1-0.6-1.9-0.8-2.8v-5.2c0.5-2,1.5-3.8,3.2-5.2c4.9-4.3,10.8-6.8,16.8-8.2
			c6.2-1.5,12.5-1.7,18.1-1.7h0.6c4.7,0,9.4,0.3,13.9,0.5c2.1,0.1,4.1,0.2,6.1,0.3c2.2,0.1,4.4,0.2,6.4,0.2c3.9,0,8-0.2,12.3-0.5
			c0.8-0.1,1.5-0.1,2.3-0.2c5.5-0.4,11.2-0.8,16.8-0.8h0.9c4.8,0,10.5,0.4,16.2,1.8c5.9,1.5,11.9,4.2,16.8,9
			c1.2,1.1,2.2,2.4,3.2,3.7C330,224.5,331.6,249.5,331.6,274.6z"/>
	</g>
</g>
</svg>
