<?xml version="1.0" encoding="utf-8"?>
<!-- Generator: Adobe Illustrator 19.1.0, SVG Export Plug-In . SVG Version: 6.00 Build 0)  -->
<svg version="1.1" id="Layer_1" xmlns="http://www.w3.org/2000/svg" xmlns:xlink="http://www.w3.org/1999/xlink" x="0px" y="0px"
	 viewBox="0 0 288.7 220.5" style="enable-background:new 0 0 288.7 220.5;" xml:space="preserve">
<style type="text/css">
	.st0{fill:none;stroke:#706F6E;stroke-width:12;stroke-miterlimit:10;}
	.st1{fill:none;stroke:#706F6E;stroke-width:6;stroke-miterlimit:10;}
	.st2{fill:none;stroke:#5A7F72;stroke-width:16;stroke-miterlimit:10;}
</style>
<line class="st0" x1="146.7" y1="27.8" x2="146.7" y2="194.8"/>
<line class="st0" x1="281.7" y1="4" x2="281.7" y2="177.6"/>
<line class="st0" x1="7.5" y1="4.8" x2="7.5" y2="177.6"/>
<path class="st0" d="M146.7,27.8c0-15.3,60.3-23.6,135-17.2"/>
<path class="st0" d="M146.7,27.8C146.1,10.8,83.9,3.7,7.5,10.6"/>
<path class="st0" d="M146.7,205.2c-0.2-25.2-62.4-43.4-139.1-33.3"/>
<path class="st0" d="M146.7,205.2c-0.7-25.3,59.8-43.6,135-33.3"/>
<path class="st1" d="M173,63.9c-0.1-11.7,39.2-18.9,87.2-17.2"/>
<path class="st1" d="M173,87.5c-0.1-11.7,39.2-18.9,87.2-17.2"/>
<path class="st1" d="M173,111.1c-0.1-11.7,39.2-18.9,87.2-17.2"/>
<path class="st1" d="M173.6,134.7c-0.1-11.7,39.2-18.9,87.2-17.2"/>
<path class="st2" d="M146.4,218.8c-0.2-26-64.6-44.8-144.2-34.3"/>
<path class="st2" d="M147.4,218.8c-0.8-26.1,61.9-45,139.9-34.3"/>
</svg>
