<?xml version="1.0" encoding="utf-8"?>
<!-- Generator: Adobe Illustrator 19.1.0, SVG Export Plug-In . SVG Version: 6.00 Build 0)  -->
<svg version="1.1" id="Layer_1" xmlns="http://www.w3.org/2000/svg" xmlns:xlink="http://www.w3.org/1999/xlink" x="0px" y="0px"
	 viewBox="0 0 286.3 286.3" style="enable-background:new 0 0 286.3 286.3;" xml:space="preserve">
<style type="text/css">
	.st0{fill:#FFFFFF;}
	.st1{fill:#5B7F72;}
	.st2{fill:#5B7F72;stroke:#929292;stroke-miterlimit:10;}
</style>
<g id="_x38_r6BvL.tif">
	<g>
		<path class="st0" d="M255.3,151.8c-10-11.5-19.8-22.6-29.5-33.9c-0.7-0.8-0.9-2.2-0.9-3.4c1-12,2-23.9,3.1-35.9
			c0.2-2.7,0.5-5.4,0.8-8.3c2.2,0.4,4,0.7,5.9,1c1.8,0.3,3.7,0.7,5.5,1c-15.2-21.3-35-35.8-59.9-43.6c1.9,3.4,3.7,6.7,5.6,10.2
			c-0.6,0.3-1,0.6-1.4,0.8c-13.3,5.7-26.6,11.4-39.9,16.9c-1,0.4-2.4,0.2-3.4-0.2c-12.9-5.4-25.7-10.9-38.6-16.4
			c-0.7-0.3-1.4-0.7-2.2-1.2c2-3.6,3.8-7,5.7-10.5c-17,2.5-52,27.9-60.3,43.9c4-0.7,7.7-1.4,11.5-2c0.2,1,0.4,1.6,0.4,2.3
			c1.2,13.8,2.5,27.7,3.5,41.5c0.1,1.5-0.6,3.3-1.5,4.5c-3.5,4.3-7.3,8.5-10.9,12.7c-5.9,6.8-11.8,13.5-17.8,20.4
			c-2.9-3-5.6-5.9-8.8-9.3c0.3,26.8,7.8,50.3,23.5,72c0.6-4.6,1.1-8.4,1.6-12.1c0.6,0,0.9,0,1.2,0c14.1,3.2,28.2,6.4,42.2,9.7
			c1.2,0.3,2.5,1.4,3.1,2.4c7.2,11.9,14.3,23.8,21.5,35.7c0.4,0.7,0.8,1.4,1.2,2.2c-3.7,1.8-7.2,3.5-11.3,5.5
			c25.6,8,50.3,8.1,75.9,0c-4.3-2-7.8-3.7-11.3-5.4c0.2-0.5,0.3-0.8,0.4-1c7.5-12.5,14.9-25,22.5-37.4c0.6-1,1.9-1.8,3.1-2
			c9-2.2,18-4.2,27-6.3c5.3-1.2,10.6-2.4,16.1-3.6c0.3,2.2,0.5,4.1,0.7,5.9c0.3,1.9,0.5,3.8,1,6.4c15.7-21.8,23.2-45.3,23.5-72
			C260.9,145.8,258.2,148.7,255.3,151.8z"/>
		<path class="st1" d="M143.3,0C64.3-0.2,0.5,63.5,0,142.9c-0.5,78.8,63.8,143.2,143,143.4c79,0.2,142.8-63.5,143.2-142.9
			C286.7,64.5,222.6,0.2,143.3,0z M240.6,214.5c-0.4-2.6-0.7-4.5-1-6.4c-0.2-1.9-0.5-3.7-0.7-5.9c-5.5,1.2-10.8,2.4-16.1,3.6
			c-9,2.1-18,4.1-27,6.3c-1.2,0.3-2.5,1.1-3.1,2c-7.6,12.4-15,24.9-22.5,37.4c-0.1,0.2-0.2,0.5-0.4,1c3.5,1.7,7,3.4,11.3,5.4
			c-25.5,8.1-50.2,8-75.9,0c4.2-2,7.7-3.7,11.3-5.5c-0.4-0.8-0.8-1.6-1.2-2.2c-7.1-11.9-14.2-23.8-21.5-35.7
			c-0.7-1.1-1.9-2.2-3.1-2.4c-14-3.3-28.1-6.5-42.2-9.7c-0.3-0.1-0.6,0-1.2,0c-0.5,3.7-1,7.5-1.6,12.1c-15.7-21.7-23.2-45.2-23.5-72
			c3.2,3.4,5.9,6.3,8.8,9.3c6-6.9,11.9-13.7,17.8-20.4c3.7-4.2,7.4-8.3,10.9-12.7c1-1.2,1.6-3,1.5-4.5c-1.1-13.8-2.3-27.7-3.5-41.5
			c0-0.7-0.2-1.3-0.4-2.3c-3.8,0.7-7.5,1.3-11.5,2c8.3-16,43.3-41.4,60.3-43.9c-1.9,3.5-3.8,6.9-5.7,10.5c0.8,0.4,1.5,0.8,2.2,1.2
			c12.9,5.5,25.7,11,38.6,16.4c1,0.4,2.5,0.6,3.4,0.2c13.3-5.6,26.6-11.2,39.9-16.9c0.4-0.2,0.8-0.5,1.4-0.8
			c-1.9-3.5-3.7-6.8-5.6-10.2c24.9,7.7,44.8,22.3,59.9,43.6c-1.8-0.3-3.7-0.7-5.5-1c-1.8-0.3-3.7-0.7-5.9-1
			c-0.3,2.9-0.6,5.6-0.8,8.3c-1,12-2.1,23.9-3.1,35.9c-0.1,1.1,0.2,2.6,0.9,3.4c9.7,11.2,19.5,22.4,29.5,33.9
			c2.9-3.1,5.6-5.9,8.8-9.3C263.8,169.2,256.3,192.7,240.6,214.5z"/>
		<path class="st0" d="M255.3,151.8c-10-11.5-19.8-22.6-29.5-33.9c-0.7-0.8-0.9-2.2-0.9-3.4c1-12,2-23.9,3.1-35.9
			c0.2-2.7,0.5-5.4,0.8-8.3c2.2,0.4,4,0.7,5.9,1c1.8,0.3,3.7,0.7,5.5,1c-15.2-21.3-35-35.8-59.9-43.6c1.9,3.4,3.7,6.7,5.6,10.2
			c-0.6,0.3-1,0.6-1.4,0.8c-13.3,5.7-26.6,11.4-39.9,16.9c-1,0.4-2.4,0.2-3.4-0.2c-12.9-5.4-25.7-10.9-38.6-16.4
			c-0.7-0.3-1.4-0.7-2.2-1.2c2-3.6,3.8-7,5.7-10.5c-17,2.5-52,27.9-60.3,43.9c4-0.7,7.7-1.4,11.5-2c0.2,1,0.4,1.6,0.4,2.3
			c1.2,13.8,2.5,27.7,3.5,41.5c0.1,1.5-0.6,3.3-1.5,4.5c-3.5,4.3-7.3,8.5-10.9,12.7c-5.9,6.8-11.8,13.5-17.8,20.4
			c-2.9-3-5.6-5.9-8.8-9.3c0.3,26.8,7.8,50.3,23.5,72c0.6-4.6,1.1-8.4,1.6-12.1c0.6,0,0.9,0,1.2,0c14.1,3.2,28.2,6.4,42.2,9.7
			c1.2,0.3,2.5,1.4,3.1,2.4c7.2,11.9,14.3,23.8,21.5,35.7c0.4,0.7,0.8,1.4,1.2,2.2c-3.7,1.8-7.2,3.5-11.3,5.5
			c25.6,8,50.3,8.1,75.9,0c-4.3-2-7.8-3.7-11.3-5.4c0.2-0.5,0.3-0.8,0.4-1c7.5-12.5,14.9-25,22.5-37.4c0.6-1,1.9-1.8,3.1-2
			c9-2.2,18-4.2,27-6.3c5.3-1.2,10.6-2.4,16.1-3.6c0.3,2.2,0.5,4.1,0.7,5.9c0.3,1.9,0.5,3.8,1,6.4c15.7-21.8,23.2-45.3,23.5-72
			C260.9,145.8,258.2,148.7,255.3,151.8z M192.9,134c-6,18.2-11.9,36.4-17.8,54.6c-0.6,1.9-1.4,2.5-3.4,2.5
			c-9.5-0.1-19.1-0.1-28.6-0.1c-9.4,0-18.9,0-28.4,0.1c-2.1,0-2.9-0.6-3.6-2.6c-5.8-18.1-11.7-36.3-17.7-54.4
			c-0.6-1.7-0.3-2.6,1.2-3.7c15.5-11.2,30.9-22.4,46.3-33.7c1.5-1.1,2.5-1.3,4.2-0.1c15.5,11.4,31,22.6,46.5,33.8
			C193.1,131.5,193.4,132.4,192.9,134z"/>
		<path class="st2" d="M192.9,134c-6,18.2-11.9,36.4-17.8,54.6c-0.6,1.9-1.4,2.5-3.4,2.5c-9.5-0.1-19.1-0.1-28.6-0.1
			c-9.4,0-18.9,0-28.4,0.1c-2.1,0-2.9-0.6-3.6-2.6c-5.8-18.1-11.7-36.3-17.7-54.4c-0.6-1.7-0.3-2.6,1.2-3.7
			c15.5-11.2,30.9-22.4,46.3-33.7c1.5-1.1,2.5-1.3,4.2-0.1c15.5,11.4,31,22.6,46.5,33.8C193.1,131.5,193.4,132.4,192.9,134z"/>
	</g>
</g>
</svg>
