<?xml version="1.0" encoding="utf-8"?>
<!-- Generator: Adobe Illustrator 19.2.1, SVG Export Plug-In . SVG Version: 6.00 Build 0)  -->
<svg version="1.1" id="Layer_1" xmlns="http://www.w3.org/2000/svg" xmlns:xlink="http://www.w3.org/1999/xlink" x="0px" y="0px"
	 viewBox="0 0 286.3 286.3" style="enable-background:new 0 0 286.3 286.3;" xml:space="preserve">
<style type="text/css">
	.st0{display:none;fill:#FFFFFF;}
	.st1{fill:#727272;}
	.st2{fill:#727272;stroke:#929292;stroke-width:0.8976;stroke-miterlimit:10;}
</style>
<g id="_x38_r6BvL.tif">
	<g>
		<path class="st0" d="M244.2,160.6c-9-10.3-17.8-20.3-26.5-30.4c-0.6-0.7-0.8-2-0.8-3.1c0.9-10.8,1.8-21.5,2.8-32.2
			c0.2-2.4,0.4-4.8,0.7-7.5c2,0.4,3.6,0.6,5.3,0.9c1.6,0.3,3.3,0.6,4.9,0.9c-13.6-19.1-31.4-32.1-53.8-39.1c1.7,3.1,3.3,6,5,9.2
			c-0.5,0.3-0.9,0.5-1.3,0.7c-11.9,5.1-23.9,10.2-35.8,15.2c-0.9,0.4-2.2,0.2-3.1-0.2c-11.6-4.8-23.1-9.8-34.6-14.7
			c-0.6-0.3-1.3-0.6-2-1.1c1.8-3.2,3.4-6.3,5.1-9.4C95,52,63.6,74.8,56.1,89.1c3.6-0.6,6.9-1.3,10.3-1.8c0.2,0.9,0.4,1.4,0.4,2.1
			c1.1,12.4,2.2,24.9,3.1,37.3c0.1,1.3-0.5,3-1.3,4c-3.1,3.9-6.6,7.6-9.8,11.4c-5.3,6.1-10.6,12.1-16,18.3c-2.6-2.7-5-5.3-7.9-8.3
			c0.3,24.1,7,45.2,21.1,64.6c0.5-4.1,1-7.5,1.4-10.9c0.5,0,0.8,0,1.1,0c12.7,2.9,25.3,5.7,37.9,8.7c1.1,0.3,2.2,1.3,2.8,2.2
			c6.5,10.7,12.8,21.4,19.3,32c0.4,0.6,0.7,1.3,1.1,2c-3.3,1.6-6.5,3.1-10.1,4.9c23,7.2,45.2,7.3,68.1,0c-3.9-1.8-7-3.3-10.1-4.8
			c0.2-0.4,0.3-0.7,0.4-0.9c6.7-11.2,13.4-22.4,20.2-33.6c0.5-0.9,1.7-1.6,2.8-1.8c8.1-2,16.2-3.8,24.2-5.7
			c4.8-1.1,9.5-2.2,14.5-3.2c0.3,2,0.4,3.7,0.6,5.3c0.3,1.7,0.4,3.4,0.9,5.7c14.1-19.6,20.8-40.7,21.1-64.6
			C249.2,155.2,246.8,157.8,244.2,160.6z"/>
		<path class="st1" d="M143.6,24.3C72.7,24.1,15.4,81.3,15,152.6c-0.4,70.7,57.3,128.5,128.4,128.7c70.9,0.2,128.2-57,128.5-128.3
			C272.3,82.2,214.8,24.5,143.6,24.3z M231,216.9c-0.4-2.3-0.6-4-0.9-5.7c-0.2-1.7-0.4-3.3-0.6-5.3c-4.9,1.1-9.7,2.2-14.5,3.2
			c-8.1,1.9-16.2,3.7-24.2,5.7c-1.1,0.3-2.2,1-2.8,1.8c-6.8,11.1-13.5,22.4-20.2,33.6c-0.1,0.2-0.2,0.4-0.4,0.9
			c3.1,1.5,6.3,3.1,10.1,4.8c-22.9,7.3-45.1,7.2-68.1,0c3.8-1.8,6.9-3.3,10.1-4.9c-0.4-0.7-0.7-1.4-1.1-2
			c-6.4-10.7-12.7-21.4-19.3-32c-0.6-1-1.7-2-2.8-2.2c-12.6-3-25.2-5.8-37.9-8.7c-0.3-0.1-0.5,0-1.1,0c-0.4,3.3-0.9,6.7-1.4,10.9
			c-14.1-19.5-20.8-40.6-21.1-64.6c2.9,3.1,5.3,5.7,7.9,8.3c5.4-6.2,10.7-12.3,16-18.3c3.3-3.8,6.6-7.5,9.8-11.4
			c0.9-1.1,1.4-2.7,1.3-4c-1-12.4-2.1-24.9-3.1-37.3c0-0.6-0.2-1.2-0.4-2.1c-3.4,0.6-6.7,1.2-10.3,1.8c7.5-14.4,38.9-37.2,54.1-39.4
			c-1.7,3.1-3.4,6.2-5.1,9.4c0.7,0.4,1.3,0.7,2,1.1c11.6,4.9,23.1,9.9,34.6,14.7c0.9,0.4,2.2,0.5,3.1,0.2
			c11.9-5,23.9-10.1,35.8-15.2c0.4-0.2,0.7-0.4,1.3-0.7c-1.7-3.1-3.3-6.1-5-9.2c22.4,6.9,40.2,20,53.8,39.1
			c-1.6-0.3-3.3-0.6-4.9-0.9c-1.6-0.3-3.3-0.6-5.3-0.9c-0.3,2.6-0.5,5-0.7,7.5c-0.9,10.8-1.9,21.5-2.8,32.2c-0.1,1,0.2,2.3,0.8,3.1
			c8.7,10.1,17.5,20.1,26.5,30.4c2.6-2.8,5-5.3,7.9-8.3C251.8,176.2,245.1,197.3,231,216.9z"/>
		<path class="st0" d="M244.2,160.6c-9-10.3-17.8-20.3-26.5-30.4c-0.6-0.7-0.8-2-0.8-3.1c0.9-10.8,1.8-21.5,2.8-32.2
			c0.2-2.4,0.4-4.8,0.7-7.5c2,0.4,3.6,0.6,5.3,0.9c1.6,0.3,3.3,0.6,4.9,0.9c-13.6-19.1-31.4-32.1-53.8-39.1c1.7,3.1,3.3,6,5,9.2
			c-0.5,0.3-0.9,0.5-1.3,0.7c-11.9,5.1-23.9,10.2-35.8,15.2c-0.9,0.4-2.2,0.2-3.1-0.2c-11.6-4.8-23.1-9.8-34.6-14.7
			c-0.6-0.3-1.3-0.6-2-1.1c1.8-3.2,3.4-6.3,5.1-9.4C95,52,63.6,74.8,56.1,89.1c3.6-0.6,6.9-1.3,10.3-1.8c0.2,0.9,0.4,1.4,0.4,2.1
			c1.1,12.4,2.2,24.9,3.1,37.3c0.1,1.3-0.5,3-1.3,4c-3.1,3.9-6.6,7.6-9.8,11.4c-5.3,6.1-10.6,12.1-16,18.3c-2.6-2.7-5-5.3-7.9-8.3
			c0.3,24.1,7,45.2,21.1,64.6c0.5-4.1,1-7.5,1.4-10.9c0.5,0,0.8,0,1.1,0c12.7,2.9,25.3,5.7,37.9,8.7c1.1,0.3,2.2,1.3,2.8,2.2
			c6.5,10.7,12.8,21.4,19.3,32c0.4,0.6,0.7,1.3,1.1,2c-3.3,1.6-6.5,3.1-10.1,4.9c23,7.2,45.2,7.3,68.1,0c-3.9-1.8-7-3.3-10.1-4.8
			c0.2-0.4,0.3-0.7,0.4-0.9c6.7-11.2,13.4-22.4,20.2-33.6c0.5-0.9,1.7-1.6,2.8-1.8c8.1-2,16.2-3.8,24.2-5.7
			c4.8-1.1,9.5-2.2,14.5-3.2c0.3,2,0.4,3.7,0.6,5.3c0.3,1.7,0.4,3.4,0.9,5.7c14.1-19.6,20.8-40.7,21.1-64.6
			C249.2,155.2,246.8,157.8,244.2,160.6z M188.2,144.6c-5.4,16.3-10.7,32.7-16,49c-0.5,1.7-1.3,2.2-3.1,2.2
			c-8.5-0.1-17.1-0.1-25.7-0.1c-8.4,0-17,0-25.5,0.1c-1.9,0-2.6-0.5-3.2-2.3c-5.2-16.2-10.5-32.6-15.9-48.8
			c-0.5-1.5-0.3-2.3,1.1-3.3c13.9-10.1,27.7-20.1,41.6-30.2c1.3-1,2.2-1.2,3.8-0.1c13.9,10.2,27.8,20.3,41.7,30.3
			C188.3,142.3,188.6,143.2,188.2,144.6z"/>
		<path class="st2" d="M188.2,144.6c-5.4,16.3-10.7,32.7-16,49c-0.5,1.7-1.3,2.2-3.1,2.2c-8.5-0.1-17.1-0.1-25.7-0.1
			c-8.4,0-17,0-25.5,0.1c-1.9,0-2.6-0.5-3.2-2.3c-5.2-16.2-10.5-32.6-15.9-48.8c-0.5-1.5-0.3-2.3,1.1-3.3
			c13.9-10.1,27.7-20.1,41.6-30.2c1.3-1,2.2-1.2,3.8-0.1c13.9,10.2,27.8,20.3,41.7,30.3C188.3,142.3,188.6,143.2,188.2,144.6z"/>
	</g>
</g>
</svg>
