<?xml version="1.0" encoding="utf-8"?>
<!-- Generator: Adobe Illustrator 19.1.0, SVG Export Plug-In . SVG Version: 6.00 Build 0)  -->
<svg version="1.1" id="Layer_1" xmlns="http://www.w3.org/2000/svg" xmlns:xlink="http://www.w3.org/1999/xlink" x="0px" y="0px"
	 viewBox="0 0 369.5 377.5" style="enable-background:new 0 0 369.5 377.5;" xml:space="preserve">
<style type="text/css">
	.st0{fill:#FFFFFF;stroke:#706F6E;stroke-width:12;stroke-miterlimit:10;}
	.st1{fill:#FFFFFF;stroke:#706F6F;stroke-width:12;stroke-miterlimit:10;}
	.st2{fill:#FFFFFF;stroke:#706F6E;stroke-width:14;stroke-miterlimit:10;}
	.st3{fill:#FFFFFF;stroke:#706F6F;stroke-width:14;stroke-miterlimit:10;}
	.st4{fill:none;stroke:#706F6E;stroke-width:9;stroke-miterlimit:10;}
	.st5{fill:#FFFFFF;stroke:#5B7F72;stroke-width:20;stroke-miterlimit:10;}
	.st6{fill:#FFFFFF;stroke:#5B7F72;stroke-width:40;stroke-miterlimit:10;}
</style>
<g>
	<g>
		
			<ellipse transform="matrix(-0.7071 -0.7071 0.7071 -0.7071 82.0227 431.4532)" class="st0" cx="130.4" cy="198.7" rx="122.1" ry="123.1"/>
		<path class="st1" d="M39.4,189.2"/>
		<path class="st1" d="M140.1,289.8"/>
		<path class="st1" d="M60.6,168.1"/>
		<path class="st1" d="M161.2,268.7"/>
		<path class="st1" d="M83.8,144.8"/>
		<path class="st1" d="M184.4,245.4"/>
		<path class="st1" d="M102.9,125.8"/>
		<path class="st1" d="M203.5,226.4"/>
		<path class="st1" d="M124,104.6"/>
		<path class="st1" d="M224.6,205.3"/>
	</g>
	<g>
		
			<ellipse transform="matrix(-0.7071 -0.7071 0.7071 -0.7071 134.8548 409.5694)" class="st0" cx="152.3" cy="176.9" rx="122.1" ry="123.1"/>
		<path class="st1" d="M61.3,167.3"/>
		<path class="st1" d="M161.9,267.9"/>
		<path class="st1" d="M82.5,146.2"/>
		<path class="st1" d="M183.1,246.8"/>
		<path class="st1" d="M103.6,125"/>
		<path class="st1" d="M204.2,225.7"/>
		<path class="st1" d="M124.8,103.9"/>
		<path class="st1" d="M225.4,204.5"/>
		<path class="st1" d="M145.9,82.8"/>
		<path class="st1" d="M246.5,183.4"/>
	</g>
	<g>
		
			<ellipse transform="matrix(-0.7071 -0.7071 0.7071 -0.7071 188.1109 387.51)" class="st0" cx="174.3" cy="154.8" rx="122.1" ry="123.1"/>
		<path class="st1" d="M83.4,145.3"/>
		<path class="st1" d="M184,245.9"/>
		<path class="st1" d="M104.5,124.1"/>
		<path class="st1" d="M205.1,224.7"/>
		<path class="st1" d="M125.7,103"/>
		<path class="st1" d="M226.3,203.6"/>
		<path class="st1" d="M146.8,81.8"/>
		<path class="st1" d="M247.4,182.5"/>
		<path class="st1" d="M168,60.7"/>
		<path class="st1" d="M268.6,161.3"/>
	</g>
	<g>
		
			<ellipse transform="matrix(-0.7071 -0.7071 0.7071 -0.7071 244.1563 364.2953)" class="st2" cx="197.5" cy="131.6" rx="122.1" ry="123.1"/>
		<path class="st3" d="M106.6,122"/>
		<path class="st3" d="M207.2,222.7"/>
		<path class="st3" d="M127.7,100.9"/>
		<path class="st3" d="M228.4,201.5"/>
		<path class="st3" d="M148.9,79.8"/>
		<path class="st3" d="M249.5,180.4"/>
		<path class="st3" d="M270.6,159.2"/>
		<path class="st3" d="M191.2,37.5"/>
		<path class="st3" d="M291.8,138.1"/>
	</g>
</g>
<g>
	<line class="st4" x1="273.2" y1="69.2" x2="125.4" y2="69.2"/>
	<line class="st4" x1="273.2" y1="111.8" x2="125.4" y2="111.8"/>
	<line class="st4" x1="273.2" y1="154.3" x2="125.4" y2="154.3"/>
	<line class="st4" x1="273.2" y1="196.9" x2="125.4" y2="196.9"/>
</g>
<g>
	<circle class="st5" cx="198.2" cy="200.7" r="82.2"/>
	<line class="st5" x1="256.4" y1="258.8" x2="275.5" y2="278.8"/>
	<line class="st6" x1="267.5" y1="269.7" x2="352.5" y2="360.6"/>
</g>
</svg>
