<?xml version="1.0" encoding="utf-8"?>
<!-- Generator: Adobe Illustrator 19.1.0, SVG Export Plug-In . SVG Version: 6.00 Build 0)  -->
<svg version="1.1" id="Layer_1" xmlns="http://www.w3.org/2000/svg" xmlns:xlink="http://www.w3.org/1999/xlink" x="0px" y="0px"
	 viewBox="0 0 386.9 352.3" style="enable-background:new 0 0 386.9 352.3;" xml:space="preserve">
<style type="text/css">
	.st0{fill:none;stroke:#706F6E;stroke-width:20;stroke-miterlimit:10;}
	.st1{fill:none;stroke:#706F6F;stroke-width:8;stroke-miterlimit:10;}
	.st2{display:none;}
	.st3{display:inline;fill:none;stroke:#5B7F72;stroke-width:20;stroke-miterlimit:10;}
	.st4{display:inline;fill:#FFFFFF;stroke:#5B7F72;stroke-width:20;stroke-miterlimit:10;}
	.st5{display:inline;fill:#FFFFFF;stroke:#5B7F72;stroke-width:40;stroke-miterlimit:10;}
	.st6{fill:#FFFFFF;}
	.st7{fill:none;stroke:#5B7F72;stroke-width:20;stroke-linecap:round;stroke-miterlimit:10;}
</style>
<ellipse class="st0" cx="190.1" cy="175.7" rx="176.2" ry="163.2"/>
<g>
	<line class="st1" x1="78.1" y1="99.4" x2="305.5" y2="99.4"/>
	<line class="st1" x1="78.1" y1="139" x2="274.7" y2="139"/>
	<line class="st1" x1="78.1" y1="178.7" x2="270.6" y2="178.7"/>
	<line class="st1" x1="78.1" y1="218.3" x2="94.2" y2="218.3"/>
	<line class="st1" x1="78.1" y1="258" x2="132.3" y2="258"/>
</g>
<g class="st2">
	<circle class="st3" cx="214.2" cy="185.6" r="82.2"/>
	<line class="st4" x1="272.4" y1="243.8" x2="291.5" y2="263.7"/>
	<line class="st5" x1="283.5" y1="254.6" x2="368.6" y2="345.6"/>
</g>
<g class="st2">
	<path class="st3" d="M117,180"/>
	<path class="st3" d="M220.2,336"/>
	<path class="st3" d="M117,180"/>
	<path class="st3" d="M13.9,336"/>
</g>
<g id="Layer_2">
	
		<rect x="311" y="195.4" transform="matrix(0.705 0.7092 -0.7092 0.705 263.2413 -169.805)" class="st6" width="49.5" height="72.2"/>
</g>
<g>
	<line class="st7" x1="94.2" y1="174" x2="270.6" y2="174"/>
	<line class="st7" x1="94.2" y1="257.1" x2="274.7" y2="257.1"/>
	<line class="st7" x1="94.2" y1="174" x2="94.2" y2="257.1"/>
	<line class="st7" x1="274.7" y1="174" x2="274.7" y2="103.7"/>
	<line class="st7" x1="274.7" y1="332.4" x2="274.7" y2="257.1"/>
	<line class="st7" x1="374.7" y1="215.6" x2="274.7" y2="103.7"/>
	<line class="st7" x1="374.7" y1="215.6" x2="274.7" y2="332.4"/>
</g>
</svg>
