<?xml version="1.0" encoding="utf-8"?>
<!-- Generator: Adobe Illustrator 19.1.0, SVG Export Plug-In . SVG Version: 6.00 Build 0)  -->
<svg version="1.1" id="Layer_1" xmlns="http://www.w3.org/2000/svg" xmlns:xlink="http://www.w3.org/1999/xlink" x="0px" y="0px"
	 viewBox="0 0 388.4 350.7" style="enable-background:new 0 0 388.4 350.7;" xml:space="preserve">
<style type="text/css">
	.st0{fill:none;stroke:#706F6E;stroke-width:20;stroke-miterlimit:10;}
	.st1{fill:none;stroke:#706F6F;stroke-width:8;stroke-miterlimit:10;}
	.st2{display:none;}
	.st3{display:inline;fill:none;stroke:#5B7F72;stroke-width:20;stroke-miterlimit:10;}
	.st4{display:inline;fill:#FFFFFF;stroke:#5B7F72;stroke-width:20;stroke-miterlimit:10;}
	.st5{display:inline;fill:#FFFFFF;stroke:#5B7F72;stroke-width:40;stroke-miterlimit:10;}
	.st6{fill:none;stroke:#5B7F72;stroke-width:20;stroke-miterlimit:10;}
	.st7{fill:none;stroke:#5B7F72;stroke-width:50;stroke-linecap:round;stroke-linejoin:round;stroke-miterlimit:10;}
</style>
<ellipse class="st0" cx="188.8" cy="175.5" rx="176.2" ry="163.2"/>
<g>
	<line class="st1" x1="76.8" y1="99.2" x2="304.2" y2="99.2"/>
	<line class="st1" x1="76.8" y1="138.8" x2="304.2" y2="138.8"/>
	<line class="st1" x1="76.8" y1="178.5" x2="304.2" y2="178.5"/>
	<line class="st1" x1="76.8" y1="218.1" x2="304.2" y2="218.1"/>
	<line class="st1" x1="76.8" y1="257.8" x2="304.2" y2="257.8"/>
</g>
<g class="st2">
	<circle class="st3" cx="212.9" cy="185.4" r="82.2"/>
	<line class="st4" x1="271.1" y1="243.6" x2="290.2" y2="263.5"/>
	<line class="st5" x1="282.2" y1="254.4" x2="367.2" y2="345.4"/>
</g>
<g>
	<path class="st6" d="M115.7,179.8"/>
	<path class="st6" d="M218.9,335.8"/>
	<path class="st6" d="M115.7,179.8"/>
	<path class="st6" d="M12.6,335.8"/>
</g>
<g>
	<path class="st7" d="M161.8,264.5c7.4,0.2,20.6,1.6,35,8.6c15.9,7.8,25.5,18.6,30.1,24.7"/>
	<path class="st7" d="M226.9,297.8c2.8-19,10.8-55.8,37.9-92.7c34.4-46.7,79-65.5,97-72"/>
</g>
</svg>
