<?xml version="1.0" encoding="utf-8"?>
<!-- Generator: Adobe Illustrator 19.1.0, SVG Export Plug-In . SVG Version: 6.00 Build 0)  -->
<svg version="1.1" id="Layer_1" xmlns="http://www.w3.org/2000/svg" xmlns:xlink="http://www.w3.org/1999/xlink" x="0px" y="0px"
	 viewBox="0 0 260.7 335.4" style="enable-background:new 0 0 260.7 335.4;" xml:space="preserve">
<style type="text/css">
	.st0{fill:none;stroke:#5A7F72;stroke-width:14;stroke-miterlimit:10;}
	.st1{fill:#9D9D9C;stroke:#9D9D9C;stroke-miterlimit:10;}
</style>
<g>
	<line class="st0" x1="258.5" y1="8.9" x2="2.4" y2="8.9"/>
	<line class="st0" x1="9.4" y1="8.6" x2="9.4" y2="52.6"/>
	<line class="st0" x1="251.8" y1="8.6" x2="252.1" y2="52.6"/>
	<line class="st0" x1="2.4" y1="326.4" x2="258.8" y2="326.4"/>
	<line class="st0" x1="251.8" y1="333" x2="251.8" y2="280.4"/>
	<line class="st0" x1="9.1" y1="333" x2="9.1" y2="280.4"/>
	<path class="st0" d="M9.4,52.6c0,66.4,42.7,113.9,97.9,113.9"/>
	<path class="st0" d="M252.1,52.6c0,66.4-43.8,113.9-100.7,113.9"/>
	<path class="st0" d="M251.8,280.4c0-59.5-44.9-107.7-100.4-107.7"/>
	<path class="st0" d="M9.1,280.4c0-59.5,43.9-107.7,98.1-107.7"/>
	<path class="st1" d="M232.1,304.4H28c0-50.5,45.9-91.3,102.6-91.3C186.7,213.1,232.1,253.9,232.1,304.4z"/>
	<path class="st1" d="M207.6,100.3c0,19.6-34.9,35.5-77.9,35.5c-42,0-76-15.9-76-35.5H207.6z"/>
</g>
</svg>
