<?xml version="1.0" encoding="utf-8"?>
<!-- Generator: Adobe Illustrator 19.1.0, SVG Export Plug-In . SVG Version: 6.00 Build 0)  -->
<svg version="1.1" id="Layer_1" xmlns="http://www.w3.org/2000/svg" xmlns:xlink="http://www.w3.org/1999/xlink" x="0px" y="0px"
	 viewBox="0 0 275.1 283.1" style="enable-background:new 0 0 275.1 283.1;" xml:space="preserve">
<style type="text/css">
	.st0{fill:none;stroke:#706F6F;stroke-width:20;stroke-miterlimit:10;}
	.st1{fill:none;stroke:#706F6F;stroke-width:12;stroke-miterlimit:10;}
	.st2{fill:none;stroke:#5A7F72;stroke-width:40;stroke-miterlimit:10;}
	.st3{fill:none;stroke:#5A7F72;stroke-width:20;stroke-miterlimit:10;}
</style>
<g>
	<path class="st0" d="M214.6,283c0-68.5-22.4-127.9-55.3-157.1"/>
	<path class="st0" d="M11.4,283c0-70,23.4-130.4,57.3-158.9"/>
</g>
<path class="st0" d="M177.2,78.6c0,37.3-27.9,67.5-62.4,67.5c-18.3,0-34.7-8.5-46.1-22c-10.1-12-16.3-28-16.3-45.5
	c0-37.3,27.9-67.5,62.4-67.5S177.2,41.3,177.2,78.6z"/>
<path class="st1" d="M64.5,283.1c0-39,8.6-70.5,19.2-70.5"/>
<line class="st2" x1="145.7" y1="295.6" x2="215" y2="142.9"/>
<line class="st3" x1="181.3" y1="124" x2="251.1" y2="158.5"/>
<line class="st3" x1="242.2" y1="155" x2="264.3" y2="104.9"/>
<line class="st3" x1="189.7" y1="129.9" x2="211.8" y2="79.8"/>
</svg>
