<?xml version="1.0" encoding="utf-8"?>
<!-- Generator: Adobe Illustrator 19.1.0, SVG Export Plug-In . SVG Version: 6.00 Build 0)  -->
<svg version="1.1" id="Layer_1" xmlns="http://www.w3.org/2000/svg" xmlns:xlink="http://www.w3.org/1999/xlink" x="0px" y="0px"
	 viewBox="0 0 382.8 351.3" style="enable-background:new 0 0 382.8 351.3;" xml:space="preserve">
<style type="text/css">
	.st0{fill:none;stroke:#706F6E;stroke-width:20;stroke-miterlimit:10;}
	.st1{fill:none;stroke:#706F6F;stroke-width:8;stroke-miterlimit:10;}
	.st2{display:none;}
	.st3{display:inline;fill:none;stroke:#5B7F72;stroke-width:20;stroke-miterlimit:10;}
	.st4{display:inline;fill:#FFFFFF;stroke:#5B7F72;stroke-width:20;stroke-miterlimit:10;}
	.st5{display:inline;fill:#FFFFFF;stroke:#5B7F72;stroke-width:40;stroke-miterlimit:10;}
	.st6{fill:#FFFFFF;}
	.st7{fill:none;stroke:#5B7F72;stroke-width:20;stroke-miterlimit:10;}
	.st8{fill:#FFFFFF;stroke:#5B7F72;stroke-width:20;stroke-miterlimit:10;}
</style>
<ellipse class="st0" cx="187.5" cy="176" rx="176.2" ry="163.2"/>
<g>
	<line class="st1" x1="75.5" y1="99.6" x2="302.9" y2="99.6"/>
	<line class="st1" x1="75.5" y1="139.3" x2="302.9" y2="139.3"/>
	<line class="st1" x1="75.5" y1="178.9" x2="302.9" y2="178.9"/>
	<line class="st1" x1="75.5" y1="218.6" x2="302.9" y2="218.6"/>
	<line class="st1" x1="75.5" y1="258.2" x2="302.9" y2="258.2"/>
</g>
<g class="st2">
	<circle class="st3" cx="211.6" cy="185.9" r="82.2"/>
	<line class="st4" x1="269.8" y1="244" x2="288.9" y2="264"/>
	<line class="st5" x1="280.9" y1="254.9" x2="365.9" y2="345.8"/>
</g>
<g>
	<path class="st6" d="M371.5,336.8c-23.4-0.9-202.3,0-202.3,0l11.6-98.6l87-59.3l80.6,55.3L371.5,336.8z"/>
	<g>
		<g>
			<path class="st7" d="M371.5,337.2c0-86.2-46.1-156-103.2-156"/>
			<path class="st7" d="M165.2,337.2c0-86.2,46.1-156,103.2-156"/>
		</g>
		<ellipse class="st8" cx="270.2" cy="156.5" rx="63.3" ry="59.7"/>
	</g>
</g>
</svg>
