<?xml version="1.0" encoding="utf-8"?>
<!-- Generator: Adobe Illustrator 19.1.0, SVG Export Plug-In . SVG Version: 6.00 Build 0)  -->
<svg version="1.1" id="Layer_1" xmlns="http://www.w3.org/2000/svg" xmlns:xlink="http://www.w3.org/1999/xlink" x="0px" y="0px"
	 viewBox="0 0 319.5 320" style="enable-background:new 0 0 319.5 320;" xml:space="preserve">
<style type="text/css">
	.st0{fill:#5B7F72;}
	.st1{fill:#FFFFFF;}
</style>
<g id="B6xUvL.tif">
	<g>
		<path class="st0" d="M186.9,93.9c-1.8-11.3-2.8-22.8-5.5-33.9c-4.1-16.8-9.3-33.4-13.9-50c-1.2-4.4-3.1-8.1-7.6-10h-3.1
			c-0.7,0.2-1.4,0.5-2.1,0.6c-15.1,2.2-30.2,4.1-45.2,6.5c-17.3,2.8-34.3,7.1-50.4,14.4C40,30.2,22.6,41.9,4.6,52.6
			c-4.6,2.7-5.6,5.8-3.8,11c1.6,4.6,3.6,9,5.2,13.5c9.7,27.1,21.3,53.2,38,76.9c11.4,16.1,24.7,30.3,41.6,40.8
			c8,4.9,16.4,8.7,25,10.8c5.3-18,10.5-35.7,15.8-53.7c-17.6,4.1-29.1,16.9-40.9,30c0-0.9-0.1-1.4-0.1-1.9
			c1.6-10.8,4.6-21.2,10.9-30.3c8.7-12.6,20.6-18.5,36.1-16c2,0.3,2.8-0.5,3.5-2.1c3.8-8.2,7.1-16.6,11.5-24.5
			c5.5-9.9,14.1-15.3,25.8-13.7c4.6,0.6,9.1,2.2,13.7,3.4C187,96,187.1,94.9,186.9,93.9z M49,121.1c2.9-22.1,18-34.3,41.9-31.2
			C87.8,113.6,70.1,124.9,49,121.1z M114.2,79.3c14.5-16.3,35-17.6,51.5-1.3C150.2,93.8,131.7,95.2,114.2,79.3z"/>
		<path class="st0" d="M314.3,181.1c-9.3-6.9-18.5-13.9-27.9-20.6c-12.7-9.1-25.7-17.6-39.7-24.3c-23.2-11-48-17-72.6-23.9
			c-6.1-1.7-9.2-0.1-11.8,5.9c-7.7,18-15.9,35.9-22.7,54.3c-8.5,23-13.4,46.8-12.7,71.5c0.6,21.3,5.8,41.2,19.2,58.2
			c6,7.7,13,14.5,23.3,16.1c5.1,0.8,10.2,1.1,15.3,1.6c15.8-1,30.3-5.9,43.9-13.8c22-12.8,38.7-31,53.6-51.3
			c13.8-18.8,24.2-39.5,35.2-60C320.9,188.8,320,185.4,314.3,181.1z M205.2,203.3c-19.9,6-38-1.9-46.3-22.6
			C177.5,174.9,196.7,181.6,205.2,203.3z M231.6,265.1c-10.2,8.7-21.4,15.6-34.7,18.2c-16.5,3.3-30.2-3.7-37.7-18.9
			c-6-12.3-7.1-25.5-6.8-38.8c5.7,7.6,10.9,15.2,16.7,22.4c9.4,11.8,22,17.3,36.9,17.5c7.7,0.1,15.5-0.7,23.2-1.1c0.8,0,1.6,0,2.5,0
			C231.7,264.7,231.7,265,231.6,265.1z M221.4,211.7c17.9-6.1,37.7,0.1,47,22.9C247,240.1,230.3,232.5,221.4,211.7z"/>
		<path class="st1" d="M90.8,89.8c-3,23.8-20.8,35.1-41.9,31.2C51.9,98.9,66.9,86.7,90.8,89.8z"/>
		<path class="st1" d="M165.6,78c-15.4,15.9-33.9,17.3-51.5,1.3C128.7,62.9,149.1,61.6,165.6,78z"/>
		<path class="st1" d="M231.7,264.5c0,0.2,0,0.5-0.1,0.6c-10.2,8.7-21.4,15.6-34.7,18.2c-16.5,3.3-30.2-3.7-37.7-18.9
			c-6-12.3-7.1-25.5-6.8-38.8c5.7,7.6,10.9,15.2,16.7,22.4c9.4,11.8,22,17.3,36.9,17.5c7.7,0.1,15.5-0.7,23.2-1.1
			C230,264.5,230.9,264.5,231.7,264.5z"/>
		<path class="st1" d="M268.4,234.5c-21.4,5.6-38.1-2-47-22.9C239.3,205.6,259.1,211.7,268.4,234.5z"/>
		<path class="st1" d="M205.2,203.3c-19.9,6-38-1.9-46.3-22.6C177.5,174.9,196.7,181.6,205.2,203.3z"/>
	</g>
</g>
</svg>
