<?xml version="1.0" encoding="utf-8"?>
<!-- Generator: Adobe Illustrator 19.1.0, SVG Export Plug-In . SVG Version: 6.00 Build 0)  -->
<svg version="1.1" id="Layer_1" xmlns="http://www.w3.org/2000/svg" xmlns:xlink="http://www.w3.org/1999/xlink" x="0px" y="0px"
	 viewBox="-383.8 286.1 26.8 29.1" style="enable-background:new -383.8 286.1 26.8 29.1;" xml:space="preserve">
<style type="text/css">
	.st0{fill:#778D87;}
</style>
<g>
	<path class="st0" d="M-359,299.5c0-0.1-0.1-0.2-0.2-0.2c-0.1,0-0.2,0.1-0.2,0.2c-0.8,1.9-2.3,2.8-5.7,4.9c-1.8,1.1-3.7,2.2-4.4,4.2
		c-0.1-1-0.2-2.3-0.2-2.9c-0.1-0.9-0.2-1.9-0.3-3c0.3,0.3,0.8,0.7,1.2,0.6c0.5-0.1,0.9-0.9,1-1.3c0-0.2,0-0.4-0.1-0.7
		c0.2,0.2,0.3,0.4,0.4,0.5c0.3,0.2,1.2,0.5,1.6,0.2c0.4-0.3,0.5-1.2,0.3-1.6c-0.1-0.2-0.2-0.4-0.3-0.6c0.2,0.1,0.4,0.2,0.6,0.3
		c0.4,0.1,1.3-0.1,1.6-0.5c0.2-0.4-0.1-1.3-0.4-1.6c-0.1-0.1-0.3-0.3-0.5-0.4c0.3,0,0.5,0,0.7,0c0.4-0.1,1.2-0.6,1.2-1.1
		c0.1-0.5-0.6-1.2-1-1.3c-0.2-0.1-0.4-0.1-0.7-0.1c0.3-0.1,0.5-0.2,0.6-0.3c0.3-0.2,0.8-1,0.7-1.5c-0.2-0.5-1-0.8-1.4-0.8
		c-0.2,0-0.4,0.1-0.7,0.1c0.2-0.2,0.4-0.3,0.4-0.5c0.2-0.3,0.3-1.3,0-1.6c-0.3-0.4-1.3-0.3-1.6-0.2c-0.2,0.1-0.3,0.2-0.5,0.4
		c0.1-0.2,0.2-0.5,0.2-0.6c0-0.4-0.2-1.3-0.7-1.5s-1.3,0.2-1.6,0.5c-0.1,0.1-0.2,0.3-0.3,0.6c0-0.3,0-0.5-0.1-0.7
		c-0.1-0.4-0.7-1.1-1.2-1.1s-1.1,0.7-1.2,1.1c-0.1,0.2-0.1,0.4-0.1,0.7c-0.1-0.2-0.2-0.4-0.3-0.6c-0.3-0.3-1.1-0.7-1.6-0.5
		s-0.7,1.1-0.7,1.5c0,0.2,0.1,0.4,0.2,0.6c-0.2-0.2-0.4-0.3-0.5-0.4c-0.4-0.2-1.3-0.2-1.6,0.2c-0.3,0.4-0.2,1.3,0,1.6
		c0.1,0.1,0.2,0.3,0.4,0.5c-0.3-0.1-0.5-0.1-0.7-0.1c-0.4,0-1.3,0.3-1.4,0.8c-0.2,0.5,0.4,1.3,0.7,1.5c0.1,0.1,0.4,0.2,0.6,0.3
		c-0.3,0-0.5,0.1-0.7,0.1c-0.4,0.2-1,0.8-1,1.3c0.1,0.5,0.8,1,1.2,1.1c0.2,0,0.4,0,0.7,0c-0.2,0.1-0.4,0.3-0.5,0.4
		c-0.3,0.3-0.6,1.2-0.4,1.6c0.2,0.4,1.2,0.6,1.6,0.5c0.2,0,0.4-0.1,0.6-0.3c-0.2,0.2-0.3,0.4-0.3,0.6c-0.1,0.4-0.1,1.3,0.3,1.6
		c0.4,0.3,1.3,0,1.6-0.2c0.1-0.1,0.3-0.3,0.4-0.5c-0.1,0.3-0.1,0.5-0.1,0.7c0,0.4,0.5,1.2,1,1.3c0.4,0.1,0.9-0.3,1.2-0.6
		c-0.1,1-0.2,2.1-0.3,2.9c-0.1,0.6-0.1,1.9-0.2,2.9c-0.7-1.9-2.6-3.1-4.4-4.2c-3.5-2.1-4.9-3-5.7-4.9c0-0.1-0.1-0.2-0.2-0.2
		s-0.2,0.1-0.2,0.2c-0.9,3.1,0.6,5.8,4.7,8.1c0.3,0.2,0.7,0.4,1.1,0.6c1.1,0.6,2.3,1.2,3.2,1.9c1.4,1.1,2.1,2.6,2.3,3.5
		c0,0.1,0.1,0.2,0.2,0.2l0,0c0.1,0,0.2-0.1,0.2-0.2c0.4-1.3,1.3-2.6,2.4-3.5c0.8-0.7,2-1.3,3.1-1.9c0.4-0.2,0.8-0.4,1.1-0.6
		C-359.5,305.3-358,302.7-359,299.5z M-368.9,302.8c-0.2,0-0.7-0.3-0.9-0.6c-0.3-0.5-0.4-2-0.4-4.1c0.2,0,0.4-0.1,0.6-0.1
		c0.8,2,1.3,3.4,1.3,3.9C-368.4,302.2-368.7,302.8-368.9,302.8z M-370.4,297.7c-1.1,0-2-0.9-2-2c0-1.1,0.9-2,2-2s2,0.9,2,2
		C-368.5,296.8-369.3,297.7-370.4,297.7z M-366.1,301.6c-0.1,0.1-0.8,0-1-0.2c-0.4-0.3-1.2-1.6-2.1-3.6c0.2-0.1,0.4-0.2,0.5-0.4
		c1.6,1.4,2.6,2.5,2.7,3.1C-365.9,300.8-366,301.5-366.1,301.6z M-364.4,298.3c0.2,0.2,0.4,0.9,0.3,1c-0.1,0.2-0.7,0.3-1,0.3
		c-0.5-0.1-1.7-1-3.3-2.4c0.1-0.2,0.2-0.3,0.3-0.5C-366.1,297.3-364.8,297.9-364.4,298.3z M-363.8,295.6c0.3,0.1,0.7,0.6,0.7,0.8
		s-0.5,0.6-0.8,0.7c-0.5,0.1-2-0.2-4-0.8c0-0.2,0.1-0.4,0.1-0.6c0,0,0,0,0-0.1C-365.8,295.4-364.3,295.4-363.8,295.6z M-364.4,293
		c0.3,0,0.9,0.3,1,0.5c0.1,0.2-0.2,0.8-0.5,0.9c-0.4,0.3-1.9,0.6-4,0.9c0-0.2-0.1-0.4-0.2-0.6C-366.3,293.6-365,293-364.4,293z
		 M-366.1,290.8c0.3-0.1,0.9-0.1,1.1,0c0.1,0.1,0.1,0.8-0.1,1.1c-0.3,0.5-1.4,1.3-3.2,2.4c0,0-0.1,0-0.1,0.1
		c-0.1-0.2-0.3-0.3-0.4-0.5C-367.5,292.1-366.6,291-366.1,290.8z M-368.4,289.4c0.2-0.2,0.8-0.5,1-0.4c0.2,0.1,0.4,0.7,0.4,1
		c-0.1,0.5-0.8,1.8-2,3.4l-0.1,0.1c-0.2-0.1-0.4-0.2-0.6-0.3C-369.2,291.2-368.8,289.8-368.4,289.4z M-371.2,289.1
		c0.1-0.3,0.6-0.8,0.7-0.8s0.6,0.5,0.7,0.8c0.2,0.5,0,2-0.4,4.1c-0.1,0-0.2,0-0.3,0s-0.2,0-0.3,0
		C-371.2,291.1-371.3,289.6-371.2,289.1z M-373.4,289c0.2-0.1,0.8,0.2,1,0.4c0.4,0.4,0.8,1.8,1.3,3.9c-0.2,0.1-0.4,0.1-0.6,0.3
		c-1.2-1.7-2-3-2-3.6C-373.8,289.7-373.6,289.1-373.4,289z M-375.8,291.8c-0.2-0.3-0.2-0.9-0.1-1.1c0.1-0.1,0.8-0.2,1.1,0
		c0.5,0.2,1.5,1.3,2.8,3c-0.2,0.1-0.3,0.3-0.4,0.5C-374.3,293.2-375.5,292.3-375.8,291.8z M-376.9,294.4c-0.2-0.2-0.6-0.8-0.5-0.9
		c0.1-0.2,0.7-0.5,1-0.5c0.5,0,1.9,0.6,3.8,1.7c-0.1,0.2-0.2,0.4-0.2,0.6C-375,295-376.4,294.7-376.9,294.4z M-376.9,297.1
		c-0.3-0.1-0.8-0.5-0.8-0.7s0.4-0.7,0.7-0.8c0.5-0.2,2-0.2,4.1,0c0,0,0,0,0,0.1c0,0.2,0,0.4,0.1,0.6
		C-374.9,296.9-376.3,297.2-376.9,297.1z M-375.7,299.6c-0.3,0.1-0.9-0.1-1-0.3c-0.1-0.2,0.1-0.8,0.3-1c0.4-0.4,1.7-1,3.7-1.7
		c0.1,0.2,0.2,0.4,0.3,0.5C-374,298.6-375.2,299.5-375.7,299.6z M-373.7,301.4c-0.2,0.2-0.9,0.3-1,0.2c-0.1-0.1-0.2-0.8-0.1-1
		c0.2-0.5,1.2-1.6,2.7-3.1c0.2,0.1,0.3,0.3,0.5,0.4C-372.5,299.8-373.2,301.1-373.7,301.4z M-371.1,302.2c-0.1,0.3-0.7,0.6-0.9,0.6
		s-0.5-0.6-0.6-0.9c-0.1-0.5,0.4-2,1.3-3.9c0.2,0.1,0.4,0.1,0.6,0.1C-370.7,300.3-370.8,301.8-371.1,302.2z M-363.9,307.2
		c-0.4,0.2-0.7,0.4-1.1,0.6c-1.1,0.6-2.4,1.2-3.2,1.9c-1,0.8-2,2.2-2.5,3.4c-0.5-1.3-1.2-2.5-2.1-3.3c-0.9-0.7-1.9-1.4-3-2
		c-0.4-0.2-0.8-0.4-1.2-0.6c-3.6-2-5.5-4.9-5-7.5c1,1.7,3.2,3.3,6.1,5c1.1,0.6,1.9,1.3,2.7,2.1s1,1.6,1.3,2.9c0,0.1,0.1,0.2,0.2,0.2
		s0.2-0.1,0.2-0.2c0-1,0.6-6.1,0.7-7.2l0.2,0c0.1,1,0.5,6.1,0.5,7.2c0,0.1,0.1,0.2,0.2,0.2s0.2-0.1,0.2-0.2c0.3-1.2,1-2.1,1.8-3
		c0.8-0.8,1.8-1.5,2.9-2.1c2.9-1.7,4.6-2.8,5.6-4.5C-358.8,302.9-360.3,305.2-363.9,307.2z"/>
</g>
</svg>
