<?xml version="1.0" encoding="utf-8"?>
<!-- Generator: Adobe Illustrator 19.1.0, SVG Export Plug-In . SVG Version: 6.00 Build 0)  -->
<svg version="1.1" id="Layer_1" xmlns="http://www.w3.org/2000/svg" xmlns:xlink="http://www.w3.org/1999/xlink" x="0px" y="0px"
	 viewBox="0 0 406.8 389.7" style="enable-background:new 0 0 406.8 389.7;" xml:space="preserve">
<style type="text/css">
	.st0{display:none;}
	.st1{display:inline;fill:#FFFFFF;stroke:#706F6E;stroke-width:12;stroke-miterlimit:10;}
	.st2{display:inline;fill:#FFFFFF;stroke:#5B7F72;stroke-width:20;stroke-miterlimit:10;}
	.st3{display:inline;fill:#FFFFFF;stroke:#5B7F72;stroke-width:40;stroke-miterlimit:10;}
	.st4{fill:#FFFFFF;stroke:#706F6E;stroke-width:12;stroke-miterlimit:10;}
	.st5{fill:none;stroke:#706F6E;stroke-width:12;stroke-miterlimit:10;}
	.st6{fill:#FFFFFF;stroke:#5B7F72;stroke-width:12;stroke-miterlimit:10;}
	.st7{fill:none;stroke:#706F6E;stroke-width:14.9756;stroke-miterlimit:10;}
</style>
<g class="st0">
	<ellipse class="st1" cx="142.8" cy="192.6" rx="123.1" ry="122.1"/>
	<path class="st1" d="M85.2,121.5"/>
	<path class="st1" d="M85.2,263.8"/>
	<path class="st1" d="M115.1,121.5"/>
	<path class="st1" d="M115.1,263.8"/>
	<path class="st1" d="M148,121.5"/>
	<path class="st1" d="M148,263.8"/>
	<path class="st1" d="M174.9,121.5"/>
	<path class="st1" d="M174.9,263.8"/>
	<path class="st1" d="M204.8,121.5"/>
	<path class="st1" d="M204.8,263.8"/>
</g>
<g class="st0">
	<circle class="st2" cx="238.6" cy="208.7" r="82.2"/>
	<line class="st2" x1="296.7" y1="266.8" x2="315.8" y2="286.8"/>
	<line class="st3" x1="307.8" y1="277.7" x2="392.9" y2="368.7"/>
</g>
<circle class="st4" cx="270.4" cy="115.7" r="37.5"/>
<line class="st5" x1="190.9" y1="32.2" x2="242.4" y2="83.7"/>
<line class="st5" x1="297.9" y1="85.7" x2="347.7" y2="36"/>
<path class="st6" d="M347.9,334.2h-292c-6.6,0-12-5.4-12-12v-193c0-6.6,5.4-12,12-12h292c6.6,0,12,5.4,12,12v193
	C359.9,328.8,354.5,334.2,347.9,334.2z"/>
<path class="st6" d="M281.9,306.2h-199c-6.6,0-12-5.4-12-12v-129c0-6.6,5.4-12,12-12h199c6.6,0,12,5.4,12,12v129
	C293.9,300.8,288.5,306.2,281.9,306.2z"/>
<line class="st7" x1="325.8" y1="307.2" x2="325.8" y2="290.2"/>
</svg>
